<mxfile host="Electron" modified="2023-08-09T11:54:44.734Z" agent="Mozilla/5.0 (Macintosh; Intel Mac OS X 10_15_7) AppleWebKit/537.36 (KHTML, like Gecko) draw.io/21.6.5 Chrome/114.0.5735.243 Electron/25.3.1 Safari/537.36" etag="FfqNqJzGbLpjaFZOPjr3" version="21.6.5" type="device">
  <diagram name="Page-1" id="wLylyYK6dvHyn1n50X5X">
    <mxGraphModel dx="969" dy="723" grid="1" gridSize="10" guides="1" tooltips="1" connect="1" arrows="1" fold="1" page="1" pageScale="1" pageWidth="1169" pageHeight="827" math="0" shadow="0">
      <root>
        <mxCell id="0" />
        <mxCell id="1" parent="0" />
        <mxCell id="JKxcnkwBbqaHYij_XGOk-1" value="" style="shape=image;aspect=fixed;image=data:image/png,iVBORw0KGgoAAAANSUhEUgAAAXQAAAH+CAIAAAADKmK6AAAABmJLR0QA/wD/AP+gvaeTAAAgAElEQVR4nOydeXxTVfr/T/alSbqkSbrQfS8ta6EggyDbDOACjKjggOCKguKAg44zKvqCGVFEVBxFRikgikKp7JuVRahQaCmlbVq6N22TNPu+3/v743zNL1Pa0iXJvUnv+4++bm7uPefTNveTc55zznNIKIoCAgICAm9DxloAAQFBcEKYCwEBgU8gzIWAgMAnULEWQIABer3earUajUaDweB0Oi0Wi9Vqdb9rMpnsdrv7JYPBYLPZ7pcsFovJZNJoNA6Hw+PxmEwmh8Pxq3qCAIEwlyABQRC5XN7R0SGXy1UqlVqtdv9UKpUqlUqv17s9xeu1c7lcFovF4XDCw8P5fD6fz4+IiPA8iI6Ojo6OFolEXq+aALeQiNGiwMJgMDQ2NjY2NjY3N7e3t7e3t0ulUolEIpPJHA4HvIbJZHo+3nw+PzIyksfjuRsaXC6XyWRyuVwOh0Oj0WAzxF0Fk8lksVjul90aMrCxY7PZzGazTqezWq0mk8lgMFitVoPBoNFoVB5Ad3PfzmAwoqOjR4wYERsbGxMTEx8fn5SUlJKSkpKS4lkjQXBAmAt+cTgcd+7cqaqqqqmpaWxsbGpqamxs7OrqAgCQyeTY2Nj4+PiYmJiYmJi4uLjo6Gj4Mzo6OiQkBGvt/4PRaOzo6IAm2NnZ2dnZKZFIpFJpW1tbZ2cnvCYmJibld7KysnJzc1NSUigUCrbKCYYCYS44Qi6Xl5WV3b59+/bt21VVVWKx2G63U6nUlJSU1NRU97OXmpqamJjIYDCw1usFrFZrQ0NDowcNDQ3Nzc0IgrBYrOzs7Nzc3JycnFGjRo0fPz4iIgJrvQQDgDAXLHE4HJWVlZcvXy4rKysrKxOLxSiKRkdHjxw5Mjs7G/4cP378cOsy2O32+vr6srKympqa6urqmpqapqYmAEB0dPQf/vCHKVOmjB8/Pi8vj8lkYq2UoC8Ic/E3FovlypUrxcXFv/zyy82bNx0Oh1AonDhxYn5+fn5+/oQJE8LCwrDWiDu6urpKS0tLS0uvXbtWWlqq1WoZDMaECRNmzpw5c+bM/Px8Op2OtUaC7hDm4g9QFC0rKztz5kxxcfFvv/1mtVozMjJmzpw5derU/Pz8pKQkrAUGEiiK1tXVlZaWXrp0qbi4uKWlJSQkZOrUqTNnzvzjH/+Ym5uLtUCC/4MwFx/icrl+++23gwcPFhUVSSQSkUh0//33z5o1649//GNCQgLW6oKEpqamy5cvX7ly5cSJEx0dHYmJiQ8//PBDDz00ffp0KpWYaYElhLl4HxRFz58/v3fv3mPHjqnV6lGjRi1YsGDBggVjx47FWlowgyDItWvXfvrpp6Kiovr6+qioqIULFz711FP5+flYSxumEObiTSQSSUFBQUFBQVNTU35+/uLFixcuXJicnIy1rmFHdXX1Tz/9dODAgaqqqpEjRz799NPLli0TCARY6xpmoATe4MKFC/PmzSOTyQKBYN26dVVVVVgrIkBRFL127doLL7wQGhpKp9MXL15848YNrBUNIwhzGRIIghw5cmTy5MkAgGnTph06dMhms2EtiqA7JpNp796948ePBwDMmTPnl19+wVrRsIBYFT14fv7559GjRy9YsCAyMrKkpOTChQt//vOfiTFRHMJms5ctW3bjxo0zZ87Y7fYZM2ZMmTKltLQUa11BDmEug0EikTz22GOzZ89OSUm5devW0aNHYeOFAOfMmTPn/PnzJSUldDp98uTJzz33nFKpxFpU0EKYy4D57LPPsrKyKioqTp48WVRUREysCDgmT558/vz5b7/99tSpUxkZGfv378daUZCCdb8skDAYDE888QSFQtm4caPVasVaDsFQMRgMa9euJZFIa9asIYJlXocYiu4vjY2NjzzySFdX14EDB2bMmIG1HAKvcejQoaeffjo3N/fw4cNExhkvQphLv2hsbJw+fbpIJCoqKoqLi8NaDoGXEYvFDz/8MJ1OP3/+vFAoxFpOkEDEXO6NXq9/8MEHRSLRzz//TDiLV9BoNNnZ2Xv27MFayP+RlZV14cIFm822aNEiz8xYBEOBMJd788orr2i12qNHjxLrlb0FlUrl8/m4Sr4bGxt79OjRysrKd999F2stQQLRLboHV69eve+++woLCxcuXIi1FgKfs2PHjvXr19fW1hJL1YcOYS73YMmSJc3NzVevXsVaCIE/cDqdqampjz766NatW7HWEvAQa9L7wuVynTp1avPmzf6p7uTJk1evXiWTyY899tipU6fWr1//ww8/IAhCo9EeffRRAMChQ4ccDgeLxVqwYAG8Ra/X//DDD2KxODk5ecWKFbCj0djYWFBQsHHjxlOnTtXU1CQnJ8Pc3SQS6YknngAAVFdXV1ZWAgDmzJnD5/P7kHT58uVTp07FxcWRyeTnn3++/5Wmp6dbLBZY6cKFCxkMRnl5eV1dHQBg/vz5dDr94MGDIpFozpw5sEyr1Xrw4MHq6urJkyfPmTPHnXyvx7p8B5VKffLJJw8dOkSYixfAdiQc57S0tAAArl275uuKdDrdggULtm/f3t7efvjwYQ6HQ6fTURTV6/VTpkzh8Xjwss7Oztzc3KioKPjyzp07Dz300JkzZyoqKnJyclJSUjQazZ49e6KiogAABQUFMMnD119/HR0dDQCor6+HN7pcrpkzZ+7YsQNBkD5UbdiwYf/+/SaT6fvvv+dwOAOqtLCwEK7luXz5MrwRQZB58+Z9//33YrEYmuOWLVvgWy0tLVOnTt21a5dEIpk5c2ZycrLFYumtLi//6e+iqKiIRCIR85iGDmEufXH79m0AQHV1ta8rWrVq1UsvveR+uXLlSmguKIquWbPGbS4oij777LNuc5k9e3ZRURE8PnXqFADgrbfeQlH0H//4B3zOURStra1FEAROQj1z5gy82G635+XlOZ3OPiTZ7XY+n19XVwdfrl27dqCVnjt3DgCwf/9+eDEci4HHHR0dnuYye/bs559/Hh4fP36cRCIdPny4j7p8SnFxMQBAqVT6uqKgh+gW9QWcUtXZ2Zmdne27WmQy2VdffQUfHs96IWTy/4zouV9KpdJz586NGTPm2rVrAACj0ZiXl2c2mwEAsE+xZMkSAEBGRgYA4PHHH3/nnXe2bt0KuyFFRUULFizoe+MOGo3G5XJnzZq1c+fOuXPnQu8YUKWzZs3Kysr68ssvly5dCgA4fPjw4sWLYeGevZuGhoZz586dPHkSvpw/f75MJhMKhX3U5VPa29vpdHp4eLivKwp6CHPpC4FAkJKSUlxcPGvWLN/VUlVVhSAI7Fb0n/r6egDAhg0bIiMju71FIpG6naFQKK+//vpzzz1XWlo6ceLEr7/+uj9zTHbs2LFs2bJ58+ZNnjy5oKBAIBAMqFIAwJo1a1avXl1ZWTlq1KiioqJ9+/bB856OKRaLwf/aDZzG1kddPqW4uDg/P7+bpxMMAuIveA+WLl26e/dun35harVaAIBcLh/QXTC3Q3l5uedJg8HQ2/XLly+PjY3dvHlzXV1dWFhYf7xs/vz5DQ0Nr776allZWV5enlgsHkSlPB5vx44dYrE4LS2tx3wUsMlz5swZz5MKhWKgdXkFmUz2448/wqYWwRAhzOUerF692maz+XRiVWpqKgCgqKiox3d5PJ7NZnO/RFHU5XIBADIyMigUyjvvvOOeUapQKPpY4Eun01977bVjx469+uqrq1atuqcqk8m0a9euiIiIjz/++MKFC0aj8fvvvx9opRwO56mnntq/f/+HH37oHmzqRnZ2NplMPnbsGPy9AACNjY03btwYaF1e4bXXXhMKhcuXL/dpLcMFrIM+AcCuXbvIZPLx48d9VD6CIBMnTqRSqdu2bZNKpWfPnh0/frw7oLtr1y4AwNmzZxEEOXDgwMiRI+l0ulardTqdq1evBgBMmjRp//79u3fvnj17tlarRVF048aNAIDOzs5uFRmNxsjIyIyMjP6o0uv10dHRcNQGRdH09PRPP/0URdGBVlpbW0sikR5++GHPk1KpFADw9ttvw5crVqwAACxcuLC4uHjHjh1LliyBw1i91eUjdu3aRSKRfPePHm4Q5tIvnnnmmZCQkAsXLvio/Dt37sAgKJVK3bp16xtvvOE2F5PJlJOTAwAQiUR79ux5/vnnw8PDX3vtNaVSaTKZ3N+xPB4PDqwcOnQIFrV48eJbt251q2jDhg3btm3rjyS9Xs9isXJzcz/99NONGzeuXLnSbrdDPQOtdM6cOadPn3a/bGtre/HFFwEA2dnZp06dQlFUp9O5J0AnJiZev37d/bvfXZePOHToEJVK9cNo1PCBMJd+4XA4HnvsMSaTuXv3bh9V4XQ6b926Bb+ZPc0FRVEEQSorK00mE4qid+7cMZvNnjcqFIqysrJuJ3tj3rx5arW6P1ciCGIymfR6fVlZmcFg6PbugCpta2vre0INpKOjo6KiAlrYoOsaBAiCfPDBB1Qq9ZVXXumPToJ+QphLf0EQ5P3334cTVX2dWKibuXiLK1euvPDCC14vNqAxGAyLFy+mUqnvv/8+4SzehRiK7i8kEun1119PT09fsWJFaWnpjh07pkyZ4qO6zGazw+FwOBw0Gm3opZWWlq5bt27kyJE1NTXHjx8feoFBw6lTp1555RW9Xn/u3Lnp06djLSfYIMxlYCxcuDA3N3f16tVTp05dtmzZli1bBjo/5Z788MMPJ0+eJJFIb7755ssvvxwfHz/0Muvr61ks1vbt20NDQ90nJRLJypUre7vlqaeeWrZs2dCrxifNzc2vvvrq0aNHFy9evH379piYGKwVBSHEquhBUlhYuG7dOp1Ot2bNmrVr1wbibn4oivaRGIlKpfY9hTdAaWtr++ijj7766qukpKTPPvts5syZWCsKXrDulwUwJpNp06ZNAoGAzWa/8sorra2tWCsi6Iva2tqVK1fSaLS4uLhPP/307sgxgXchzGWomEymTz75JD4+HiZGOHnyZN8LAgn8jM1mO3ToENxsNyMj45tvviES/fsHolvkHRwOx4EDB3bt2nX58uXY2NgVK1asXLmS2IIeW6qqqr755ptvv/1WrVbPnj37ueeeW7BgAbFoyG8Q5uJl6uvr9+/fX1BQ0Nramp2dvXjx4oceeghmNiHwD9XV1QcPHjx+/HhZWVlcXNzSpUtXrVqVmJiIta5hB2EuPsHlcv3888+HDx8+cuSIXC7PyMhYuHDh/Pnz8/PzvTK6TNANi8VSUlJy7Nixn376qbW1NT4+fuHChYsWLZo6dWqPy7UJ/ABhLr4FQZDffvutqKjop59+amxsDAkJuf/++2fOnDljxozRo0cTTfSh4HQ6b9y4UVxc/Msvv5SUlFit1uzs7IULFy5cuJBoKuIBwlz8R0NDwy+//FJcXHz+/HmFQhEZGXnffffl5+dPmjQpLy+Px+NhLTAAUKlUpaWl165dKy0tvXLlil6vj4mJmTlzJvRrYlcpXEGYCwagKFpZWQm/b69duyaRSMhkclZWVn5+/oQJE3Jzc3Nycjxnuw1nVCpVZWXl7du3r1+/fu3aNZhBKiUlJT8//7777ps5c2ZmZibWGgl6hjAX7Ons7ITfxteuXSsvL9fpdACAmJiYMWPGQKPJzs5OTU0dDk0btVrd0NBQVVVVXV19+/Zto9FYVlZmt9sjIiImTJgwceLE/Pz8/Px8P+emIxgchLngjhMnTrzxxhuNjY0PPfRQXV2dWCyG82gFAkFqampKSkpqampqampSUlJ8fLxIJArECLHdbpdKpRKJpKGhobGx0f1To9EAAFgsVnZ29qhRo5544gk6nR4TE5Oeno61ZIIBQ5gLjpBKpRs3bvz666/HjRv38ccfw4WRDoejqampsbERPn7wOWxuboaOQyaTRSJRTExMTEzMiBEjoqOjY2Ji+Hw+n8+PiIiAB/53H5vNplKp1Gq1SqVSqVQKhUImk3V2dnZ2dra3t0ulUndOTyaTCe3S/TMlJSUxMRGuPLDb7S0tLTKZjMPhDJO2WzBBmAsusNvtX3zxxdtvv83j8TZv3rxs2bK+B1BdLldnZ6dEIuns7Ozo6Ojo6IANAalUKpVKuyWa5fF40GvYbDaTyQwLC2OxWEwmMzw8nMlkwhS2HA7H7UFkMtkz4gNTzMBjm80G0wmbTCar1arT6cxms9Vq1Wq1FovFbDZDQzEajZ4CwsLCoqOjo6OjY2NjoQPGxcW5f95zqNhoNDY0NOh0OoFAkJyczGQy+/tnJcAUwlywB+a1lclkL7/88j//+c+hbypot9vdrQbPA7cReDqC1WoFAOh0OgRB3LebTKa5c+eazeaLFy9yuVwq9f9Wz1OpVC6XCwBgsVgsFsvTp+AZ/u+4200RERHu24eCSqVqaGiw2+2xsbEJCQlBuagyyCDMBUvKy8v/+te//vrrr3BzYq9kV/AWt2/fptPpMHklTkBRtLOzs6WlhUKhJCQkwG0kCXALMYkLGzo7O1esWDFhwgQEQUpLS3/88UdcOQs+IZFIsbGxEyZMiIiIqK+vLy8v1+v1WIsi6BXCXPwNgiBfffVVVlZWcXHx7t27L126lJeXh7WoQIJOp6enp48bN45Cody8ebOurs7hcGAtiqAHCHPxK+Xl5ZMmTVqzZs2KFStqa2uXL19OrHwZHBwOZ/To0Tk5ORqNprS0FG4+TYArCHPxE1qtdu3atRMnTmSz2RUVFZ988klISAjWogIePp8/YcKE6OjoxsbG8vJyX+/HSDAgCHPxBwcOHMjIyPjxxx/37t174cIFn25rP9ygUCjJycnjxo0jkUg3b95sampyD3sRYAthLr6lo6Pj4YcfXrp06aJFi8RiMbEJsY/gcDhjx45NTU2VSqU3btyA228TYAuR/d9XoCi6b9++v/71r2FhYT///POMGTOwVhT8xMTEREZG1tfX37p1SyQSpaamemWKDcHgIFouPqGhoWHGjBnPPPPMs88+W1VVRTiL36DT6SNHjszOzlar1Tdu3FCpVFgrGr4Q5uJlUBT96quvxo4dq1KpSkpKtmzZAufXE/gTgUAwYcKEsLCwqqqq2tpap9OJtaLhCGEu3qStrW3WrFmrV69ev359WVnZhAkTsFY0fKHRaJmZmbm5uVqt9vr160QTxv8Q5uI1Dh48OGbMGJlM9ttvv23cuDEQMyEEHxEREXl5eeHh4VVVVXfu3HG5XFgrGkYQ5uIF5HL5ww8//MQTTzz99NNlZWXEjFtcQaVSMzMzs7KyFApFWVkZsWLAbxCx9KFy+vTpp556isPhnD9//v7778daDkHPCIXCsLCwurq6ioqKhISE+Ph4Ym60ryFaLoPH4XBs3Lhx/vz506ZNKysrI5wF59Dp9Nzc3LS0tLa2toqKCphrgsB3EC2XQdLc3Lx06dLq6uovvvji+eefx1oOQX+Jjo7m8XhisbisrCwtLU0oFGKtKGghWi6DoaCgYNSoUU6ns6ysjHCWgCMkJGTcuHECgUAsFtfX1xPLBXwEYS4Dw2KxPP30008//fQLL7xw5cqVtLQ0rBURDAYymZyenp6dnd3V1XXz5k2ii+QLiG7RAGhtbV28eHFdXd3Bgwf//Oc/Yy2HYKgIBAIej1ddXX3jxo2MjAyBQIC1oqCCaLn0l+PHj48dO9bpdJaXlxPOEjQwGIwxY8ZERUXV1NQ0NDQQWV+9CGEu98blcm3cuPGRRx558MEHL1++nJKSgrUiAm9CJpNTU1MzMzOlUmllZSXcs4Vg6BDdonugVqsfe+yxkpKSr7/+esWKFVjLIfAVIpEoJCSkpqamvLx85MiRcJMDgqFAtFz6QiwW5+fn37lz58qVK4SzBD0cDmfcuHEwVaBCocBaTsBDmEuvnDlz5r777hMIBKWlpWPHjsVaDoE/oFKpubm5sbGxNTU1TU1NWMsJbAhz6ZmvvvrqwQcfnDt3bnFxcVRUFNZyCPwHiURKTk5OT09vb2+vqqoi1joOGsJcumO321euXPnSSy/9+9///u6774hsLMOT6Ojo0aNH6/X6iooKm82GtZyAhDCX/0Gv18+fP7+wsPDo0aOvvfYa1nIIsCQ0NHTcuHEIgty8edNkMmEtJ/AgzOX/I5VKp0+fXlVVdeHChXnz5mEthwB7mEzm2LFjWSxWRUUFkfR7oBDm8n9UV1dPmjTJarVevXp13LhxWMsJKpxO5/Xr1+VyuddLRlFUoVBUVlb6blM0GOKNiIiorKzs6uryUS1BCWEuAABQUlIybdq02NjYS5cuJSQkYC0nGPBcDUgikWg0Gpns/Q+bzWaz2+0ajcaniw/JZHJWVtaIESPEYnFLS4vvKgoyCHMBhw8fnjFjxowZM3755ZfIyEis5QQJzc3N7mMKhTJmzBhfrNxhMpl+y5mQnJyckpLS2tpKDFH3k+FuLvv373/88cefffbZAwcOMJlMrOUECSaTSSqV+qcufyaUGzFiRGZmZnt7e0NDg98qDVyG9fT/Xbt2rVq16rXXXtuyZQvWWvALgiA6nU6r1TIYjPDwcPfYvMViUalUI0aM0Ol0arWazWaLRCIAgE6nE4vFLperq6uLRCIJBAIEQRQKBZ1ODw8Pv2eZMpksKSnJYrEoFAoajRYVFeW2D4vFolarnU4nl8uNiIiAJ/2crVIkElGp1JqaGqfTmZGRQeTK7IPh23L5z3/+88ILL/ztb38jnKUPEAS5ffu20+mMi4tDUbSsrEypVAIAOjo6ysrKJBJJV1dXfX19e3t7bW1tTU0NvCs0NBQAQKFQqFSq2WwWi8W1tbVGo7HvMuVyeUVFRVtbm0qlampq0uv1d+7caW1thXc1NDTU1dUJhUIej3f79m2JRILBnwMAAACfzx85cqRCoaitrSVWUffBMDWXLVu2rFmz5sMPP3z//fex1oJr6urqmEymQCCgUqmxsbERERFisdhms8FjOHs1Ly8vPz+fx+MpFAqNRhMaGspmswEAfD4/PDyczWZ3S6nVW5kikQi2fQAAI0eOzMnJCQsLcw/QyOXyiIgIGo0Gy4R+hBURERG5ubkqlaq6uppIZNcbw9Fc3nvvvTfffPPzzz9fv3491lrwjkKh4HA47pcxMTEIgshkMgAAhUKhUCgwnkqn05OSkgAAGo3m7kIoFIr7GHaR+igTAODu8oSEhLhnx+bk5MTExAAADAYD+N/RKEwICwuDO66JxWKi/dIjw85cPvzww40bN+7cufPFF1/EWgvesdlsKIp6hhVgcMRisdx9MY/HAwDcM1+kTqfrf5kUCsX93IaGhmq12traWrPZzGQy8fA8h4aGjho1SqPREP2jHhle5rJjx44NGzZ88MEHzz77LNZaAgbPXcTgNpI9rrcikUhkMvmeI27wIexnmZ40NTXJZLL09HSRSOSLKTODg8fj5eTkKJXKuro6rLXgDrz8k/xAQUHB2rVr//3vfxOLhvoJnPmm0+ncZxwOB/g9Xgv+t2+i1+sRBPHMsdTjlzmXy+27zB4xGAwSiSQmJgY/tuImLCwsJydHoVDU19djrQVf4O5f5SMOHjz47LPPvv3222+88QbWWgIGMpkcGxtrtVrdy2qUSqVAIAgLC4MvXS6XOyaiVqu5XC6cKQcbIwaDQafTIQgC477wJ41G66NMp9MJPDwLRVEURREEgbEYpVKJoqhGozEajU6n02KxWK1WWCy2IZjw8PCsrCypVNrY2IihDLxB2bhxI9YafM7Ro0cff/zx9evXb9q0CWstAUNXVxeFQklLS3O5XC0tLQ6HQy6XW63WzMxMGDFRqVQWi8VsNjudTqlUajQas7KyqFQqAIBGoykUCrlczuVy6XR6W1ubwWBwOBwsFovFYoWHh/dYplKp7OjocDqdLpeLzWZrNBr4EkXR8PBwu90uk8mkUimHw4GjRWQyOTQ0tLW11WAw2O12BoMBR6kwgc1mM5nMpqYmCoXSdyts+EAK+kBUaWnpAw888Je//GXnzp1Yawkkbt++TafTMzIyAAAIgpjNZjab7dkrqaurU6vVkyZNMplMVCq1W7QFNjr66MX0WGbfOBwOKpUKrc3pdEIjwxUdHR0NDQ3Z2dnELiUg6GfoNjc3P/zww9OmTfv888+x1hLAkMlkz8FjT0gkUo9vkUikvmev9lFmb8DeFgSHzgIAgD0+sVhMo9HcncdhSzDHXFQq1dy5c2NjY3/88Ud8fhYDGgRBMJ9sgkNSUlL4fH51dbXZbMZaC8YErblYrdZHHnnEZDIdOXJkoN+QBH2DomhnZ6dWq3U6nS0tLUQWyG5kZWWx2ezbt28P8y2QgjPmgqLoY489VlxcfOXKlaysLKzlBCSeMReCgeJwOG7evEmj0UaPHo3D4XP/EJy/9ubNm48cOXL48GHCWQgwgUaj5eTkmM3m4Tz5JQjN5dy5cxs3bty2bdv06dOx1kIwfGGz2ZmZmXD4HGst2BBs5tLS0rJkyZIlS5asWbMGay0Ewx0+n5+QkFBfX+85I3n4EFTmYjKZHnroobi4OGJKCwFOSExMDA8PF4vFcJXDsCJ4zAVF0WeeeUYqlR4+fBjDmZoEBN3IysoikUg1NTVBOXjSB8FjLjt27CgsLPzxxx9hYhECApxApVJHjhyp1+vdWfWGCUFiLjU1Na+//vpbb701Y8YMrLUQEHSHw+EkJye3tbV55poIeoJhnovNZsvPzw8JCbl48SIxE3fQwNXG7pcymYxCoXiukQkNDYUZoQgGR1VVlclkysvL80zNF8QEw6P497//vbGxsby8nHCWoeByuZqamrotCHLbDYqiY8eOxUJX8JCRkXH9+vXGxsb09HSstfiDgO8WnTt37pNPPvn888+7ZYEmGCh8Ph+mlewRBoNBNFuGCI1GS09Pl0qlCoUCay3+ILDNRaVSrVix4tFHH12+fDnWWgIeEokkFAp7nKtOJpOjoqL8Lyn4iIyMjIqKqq+vHw7LjgLbXNatW0cikb788kushQQJQqGwx4XOCIIQCUq8RWpqKiyf+CUAACAASURBVIVCGQ456wLYXC5evLhv377PPvvMvY8fwRAJCwuj0+l3nw8JCQkJCfG/nqAE5vfr6upSq9VYa/EtgWouNptt1apVc+fOXbhwIdZaggqhUNgtpksikdx7lRF4hYiIiMjIyIaGhuBOiBOo5rJ58+a2tjYiv5zXEQqF3WYnoChK9Im8Tmpqqt1ux3BTWj8QkOZy586dDz74YNOmTYmJiVhrCTa4XG63bLg8Hu+euxERDBQGg5GQkNDW1hbECesCbxIdiqLTp083Go2lpaXDZDKSn2lpaWlra4MfDBKJlJqaCvdRJfAuKIqWlZXR6fRRo0ZhrcUnBF7LpbCw8PLly19++SXhLD6iW88oMjISQzFBDIlESktL02g0wRrZDTBzcTqdb7/99pIlSyZMmIC1lqCFzWa7x4Z6Gz8i8AqhoaF8Pr+pqQlrIT4hwMxl165dDQ0N7777LtZCghyRSATHjIhxIl+TlJRkNpu7urqwFuJ9AslcLBbL5s2bX3zxxZSUFKy1BDmwZ0Qikfh8PtZagpyQkBChUNjS0hJw0c97Ekjm8tFHH+l0ujfffBNrIcEPXEnE5/OJtaB+IDEx0WazyWQyrIV4mYD56CiVyq1bt/7tb38jGupDxOl0Wq1W+D0JN36HMJlMFovlfikSiWC0xWw2W63Wu2fWsVgsBoPhL9XBDJPJjI6ObmlpEYlEwbQPScCYy7Zt2xgMxrp167AWgjt0Op1Go3G5XHALd6fTCQ+io6NHjBhx9/UdHR0tLS13n4+Pj/dM4icQCOB4nEKh6PH6hISEHucZtbW1SSQSEolEoVDIZDKVSqVQKFQqVSgU9jjw5HK5SCRSMD1UgyA+Pl4qlUql0tjYWKy1eI3AMBeDwfDFF1+89tprw2HvRLvdbjAY7Ha73W53OBwOh8PpdNrtdqFQGBcXd/f1ZrNZqVTCB5hCoTCZTHjQ298qOjpaIBDAh5lCobibJN0eb/fGzAkJCXd/4hEE6c0OIiIiaDQaiqIulwtBELfl9TbVXSKRtLa2kslkGo1Gp9Npv8Pn84fPdst0Oj0qKqq9vT0mJqbvPbYDiMAwl507dzocjlWrVmEtxDvAjgmZTO4xkbhSqayvr6dQKAwGg0ajUalUOp3O4XD6MIvo6Oj+106n0wc6ujygyEsfUnskKiqKy+U6/heLxdJbIV1dXQaDgcFgwH4ck8kMjhlPcXFxUqlUqVQGzWKLAJih63A4UlNTH3300Y8++ghrLYPBZrOp1Wqr1WqxWKxWq9VqhbtMCIXCHjeEdLlcAIDgeGB8QUdHh1wut9ls7pQodDqdyWTCTTyw1TZEqqurHQ7HmDFjsBbiHQKg5bJ//36pVLp27VqshQwSk8nU2NgIv2NDQ0OjoqKYv9Pj9YSt9E1sbCzspiEI4rZsi8XSW/NKo9EAANhsNv7Dz9HR0bdv3zabzcGxNw7eWy4oiubm5ubl5RUUFGCtpTsoippMJoPBYDQaDQYDlUoN1kUiAc3t27fh/HoYh+JwOFwul8PhsNlsHEY3rl69KhKJgmN7HLy3XE6fPl1TU3PgwAGshfx/nE5nU1OT0Wg0mUwIgsCPLI/HI1LM4pPc3FyHw2E2m81mM/wakEqlCIJMmDABhw0EkUgkk8kSExNxaHwDBe8tl0WLFmk0mvPnz2Mt5P+DomhlZaX7O5DFYgXB52BYgaKo2WzuLbeeyWTCsFFjNpuvX78+ZsyY0NBQTAR4EVy3XORy+fHjx7/55hv/V20wGNRq9YgRI+6OgJBIpNGjR/tfEoG3IJFIvTmL3W6/ceMGhUIJDQ0NCwuLiIjwc35PNpvNZrOVSiVhLr6loKCAzWYvWrTIP9W5XC7179jtdgaDERkZSeSOHVbQ6fS8vDydTqfT6SQSSVNTE5PJhFkp/TYUFRkZ2dXVFQQL6PBuLsuWLfNDx1ilUnV0dGi1WgAAl8uNjY2NiIgYDhP2CO4GZiOH+bH0er1arVapVE6n02/mwufzYYY6HIaEBgR+zeXixYu1tbXfffedH+qy2WwUCiUzMzM8PNw9M5WAAMbpExMT/Rma5HK5VCpVq9UGurngN6C7fPnympqaGzduYC2EgKBXNBoNh8Px+hdSVVUVmUzOzs72brF+BqerxaxW608//bRixQrvFmuxWLxbIMEwp6Gh4erVq3fu3PFunu3Q0FDYSQ9ocNotOn36tMlk8mIo12AwNDc3azQafM5uIAhQxo8fL5PJ2tvbpVJpZGRkUlKSVz5dPB7P4XBYrdaA3ncBp+ZSWFh43333eSXpvMPhaG5ulkqloaGho0aNIpyFwIuQyeSYmJiYmBilUtna2nrjxo0RI0YkJCQMcQ0HHEwwGo2EuXgZh8Nx4sSJt99+e+hFSaXSpqYmMpmcmZlJZJki8B2RkZF8Pr+zs7OlpYXBYAwxLQuFQmGxWEajMaC3XsCjuZw9e1ar1Q6xT4QgSF1dnUKhiI2NTUxMJFYDEvgaEokUGxsrFAq9khuUw+GYTKahl4MheAzoFhYWTpw4MT4+fiiFwORDubm5KSkphLP0hkajyc7O3rNnD9ZCBgDONdNoNK8sHWCxWN4af3A6ndevX5fL5V4pzRMURRUKRWVlZUdHx93v4s5cEAQ5duyYV0K5qampgZ7gw9dQqVQ+nx9Y0wUDUfMgGKK5eOb9I5FINBrNF4lEYVYdjUbTY5pB3HWLysrKlErl3LlzsRYyLOByub/++ivWKgZGIGoeBEwmE0EQu90+uE3pmpub3QsIKBSKjxJQMZlMoVDY0NDQ47u4a7n8/PPPIpEoJycHayEEBFgCU1u5s+0NCJPJJJVKva2oZ/roA+Ku5VJcXDxr1qzATWJQX19/8uRJrVY7ceJEd/uroaGhoKDgvffea2xs/PHHH4VC4YoVK9zTOm0228WLFy9evBgTE/OnP/3J/YXT211HjhyBU7ZIJNITTzwBAKiurq6srAQAzJkzx2Aw7N69+4033pDL5QUFBSKRaMmSJWFhYY2NjQcPHqTT6StXrnT3Fq1W68GDB0Ui0Zw5c1AUvTtvDplMfvzxxwEAer3+hx9+EIvFycnJK1as6E+v5PLly6dOnYqLiyOTyc8//zw82WM5jY2NBQUFGzduPHXqVE1NTXp6OuwRkEikhQsXMhiM8vLyuro6AMD8+fPpdLpbs+dvUV1dPXny5Dlz5rg3SBmEZl/Q3t7OZDIHOu4DPx52ux1BEJ1Op9VqGQxGeHi4+7ezWCwqlWrEiBE6nU6tVrPZbDgeqtPpxGKxy+Xq6uoikUgCgQBBEIVCQafT3f/3PsqUyWRJSUkWi0WhUNBotKioKPfDaLFY1Gq10+nkcrkRERHwZF+PKoonLBYLi8X65ptvsBYySF5++eWpU6cqlcqzZ8+SSKT3338fRVH4hAMAjh49umjRovnz5wMA3nrrLXiLxWKZPn36gQMHNBrNZ599xuVyCwsL+75LLBbDjNz19fWwEJfLNXPmzB07dnz33XdwO5GDBw8uW7bsySefpFAoixYtunjx4hNPPPHkk09SqdR58+bBu8Ri8YIFCwAAW7ZsQVHUbDZnZmZ+++23J06cOHny5IYNGwAAL7zwAoqid+7ceeihh86cOVNRUZGTk5OSkqLRaPr+U2zYsGH//v0mk+n777/ncDjwZI/l7NmzJyoqCgBQUFAwduxYAEBhYeH48eMBAJcvX4Y3Iggyb96877//vptmFEVbWlqmTp26a9cuiUQyc+bM5ORki8UyOM0+4tatW7W1tYO48dKlS1KptKKioqury+FwtLe3//rrrwqFAkVReFxSUiKXy69fv37p0qULFy5UV1ejKKrVamtqai5cuKBUKtVqtclkqqqqunDhQltbGyzW5XL1WKZMJispKYE3VlVV3b59+8KFC83NzfCu+vr6mzdv2u12tVrtWZrT6fR86Qm+zOXs2bMAgB6FBgShoaGbNm2Cx9nZ2ZMmTYLH8EE9cuQIfPnAAw+kp6fD46VLl65cudJdwqOPPspisSQSSd937d+/HwBw5swZ+NJut+fl5TmdThRF4Uba7rteeuklAMDevXvhy3/+85/wyw2+hEF++KDqdLqdO3fC8zKZLCoqasyYMfBBnT17dlFREXzr1KlTnubYI3a7nc/n19XVwZdr166FB72V849//AOaC4qitbW1CIKcO3cOALB//354sc1mW7Ro0d2aYZnPP/88PD5+/DiJRDp8+PAgNPuOmpqaqqqqQdxYUlJy48YNT2Oqrq6+dOkS3NOuurr6119/lcvlKIrabLby8vILFy6o1WoURVtaWi5cuOC+y2azeT7/NTU1vZXZ2NgIzQW+VVFRce3aNXh8+fLl1tZWeFxaWlpeXg6P+zAXfHWLiouLMzMze9ydp5+0t7fbbDascmGcOHECJvQvLS1FUdQd7YdJYebNmwdf5uTkXLt2DQBgNpsPHjzouavBiy++eOjQod27d7/11lu93QUAePzxx995552tW7fCrkFRUdGCBQvgiDts/N9///3wSpjX6g9/+AN8mZmZCQDo6OiASTk9ewo8Hg92XhAEefLJJ6E2JpMplUrPnTs3ZswYWLvRaMzLy+t7KQ2NRuNyubNmzdq5c+fcuXOhd/RRDmyWL1myBACQkZEBAJg1a1ZWVtaXX365dOlSAMDhw4cXL14MC/fU3NDQcO7cuZMnT8KX8+fPl8lkQqFwEJp9h8ViGVwKVDKZbDQaYbMOEhMTo1AoZDIZnARMoVCEQiEAgE6nJyUl3bp1S6PR3D1C6jkVA3aRPB+QbmUCANxdnpCQEL1eD49zcnLgB9JgMID/HY3qDXyZy6VLl6ZPnz6UEqhUanNzc1xc3OBi7ENkypQpRUVFhw8f/uMf/5iYmOge/O82ChgSEgL3US0pKXE4HJ5zrtLS0gAAd+7c6eMuAACFQnn99defe+650tLSiRMnfv311+55H/Aud0+4W8p7+GeBe5vcXQVk06ZNxcXFBw8eTE1NBQDU19cDADZs2DCgqMGOHTuWLVs2b968yZMnFxQUCASCPsrpsd++Zs2a1atXV1ZWjho1qqioaN++fXdrFovF4H/tBj5sg9PsC8xms8Fg6HFryn7i+ceBLtzjEDX0L6vV2ndpsNHazzIpFAr6e9aE0NBQpVKpVCrDw8OZTKbNZrunchyNFjkcjoqKikmTJg2lEKFQSKPRmpqavKVqQGzYsOGbb77ZtWvXX/7yl/5sZAG3KCopKXGfgQ9Denr6Pe9dvnx5bGzs5s2b6+rqwsLCPL/fhsL58+fffffdl19++dFHH4VnoB+Vl5d7Xga/vvpg/vz5DQ0Nr776allZWV5enlgsHmg5y5cv5/F4O3bsEIvFaWlpPX5bwAfjzJkznidh8HIQmn1BQ0MDh8MZ3HwraAHutgP4PcrruaW358VkMvmea5GgWfSzTE+amppkMll6enr/N7TGkbncunXLYrFMnDhxKIWQyeS0tDS5XN7Z2ektYf2krKzsww8/XL16tfsfjN4rV87YsWMZDMaVK1fcZxQKBQBg6tSp96yOTqe/9tprx44de/XVV721F6VcLl+6dOn48eO3bt0Kz5SXl2dkZFAolHfeecc9LKpQKGDQpzdMJtOuXbsiIiI+/vjjCxcuGI3G77//fqDlcDicp556av/+/R9++KF7sKkb2dnZZDL52LFj0KYBAI2NjTdu3BiEZl/Q3Nys1WrT0tIGN/oJN9vV6XTuM7DJ6U6v69k30ev1CIJwuVz3mR4/flwul0wm91FmjxgMBolEEhMTM6CZeDgyl9LSUi6XC7vcQ4HP5yclJdXX1/c4Jdl3wPXWP/30k9Pp/Pnnn2EHuL6+vrm5Ge6b4255Op1Oh8Nhs9mEQuHLL7/c3Nzs3t7gp59+Wrx48bRp0wAAvd3lrvG5557j8/nNzc0PPPCA+6TRaAQAuJelwI+OZyGe73peDEMtNpvtxx9/dDcTCgsLw8PDV61adfXq1WnTpn333XcFBQVPPvkkjI/0BoIg77zzDmyiT548OS0tTSAQ9FEOFKlSqbqVs3r1ajjg6rkWxFNzTEzM8uXLKysrFy9e/Msvv3z++edvvfXWn/70p0Fo9jrNzc1tbW3p6elD2XOGy+VarVZ3bhe42at7C22Xy+X+PKjVai6XC7eChY0Rg8Gg0+kQBIHOC3/SaLTY2NjeyoQfD7dnwbgs3D8HXomiqEajMRqNTqcTbkcHi+0xBEPZuHHjoH9z7/Kf//yHy+U+9dRTQy8qNDSUQqE0Njba7faIiAj/zJoRCARNTU0FBQU7d+4cPXp0Zmbm0aNH6XQ6g8HYvn27Vqs1m80ZGRlnz5797LPPNBqNzWYbPXr0I488YjQa33rrLZVK9e233zY1Ne3duxdOZunjLhhao9PpKpVq+vTpkydPhhrOnTu3bdu2rq4us9mcnp5eWlr60UcfdXZ26vX6tLS0mpqaDz74oK2tTafT5ebmWq3WzZs337hxA0b4jhw5snPnzvT09MbGxqNHjxYWFm7dulUikaxcuXL69Ont7e0nTpw4fPjw+fPn//Wvf/U949Nut2/atKmwsNDpdJ4+fZrH47377rsUCqXHcgoLCz/55BOVStXW1paRkeG5eD0yMrKkpOSVV16B0R8AgEQi8dScmpo6Y8aMurq6oqKivXv31tTUfPzxx3BF8kA1exf4vZKRkTGU7mpnZyefz+dyuS0tLQ6HQy6XW63WzMxM+HlWqVQWi8VsNjudTqlUajQas7KyYPyORqMpFAq5XM7lcul0eltbm8FgcDgcLBaLxWKFh4e7XK67y1QqlR0dHU6n0+VysdlsjUYDX6IoGh4ebrfbZTKZVCqF+8kplUoymRwaGtra2mowGGBC++75TAYxQuYjsrOz//73v3uxQKVSKRaLvVhgf+jq6rLb7fAYjgv2B7PZXF5eDsd9B8S8efP6X8sQUSgUZWVlZrP5nlciCGIymfR6fVlZmcFgGHQ5KIq2tbUhCHLPyzo6OioqKtx/+cHV5V2GXum1a9daWlpQFHW5XAaDweVyeb5bW1tbUlKCIIjBYLj7kwMbLH0U3mOZfQNn9MFjh8Nxz+vxkkPXYDCEhYUdPHjQbxuJBAElJSV79+798ssvsRZC4BNKSkoSEhJ6Sw1TV1enVqvdjVYcgpeh6JqaGgRB/NlwDVxKS0vXrVs3cuTImpqa48ePYy2HwFe4XK4+UsMgCNKfySYYghdzEYvFTCYzISHBD3WhKKrT6dxRsUCkvr6exWJt374dq335YCymt3efeuqpZcuW+VMPVqhUKqVSOfRRiLuB3tFjKiIURaVSqVardTqdLS0t0dHR/Zn34H/wYi61tbVw+NAPdWm12srKypCQEJFIJBQK8fmP6YOJEyf6IvHPgBgxYsSJEyd6e9crqdjwjMVi6erqksvlFoslIiLC6XR6/VeGI2g9zu4hkUgwca93a/Q6ePkQiMViOHHeD4SHh48bN04qlba1tTU1NYWHhwuFQoFAQCSs6z8kEingTHnoOBwOOAqj1+vpdLpAIIiJifFRync4xhzQf2S8mEttbS1cReIfuFwul8tNTU1Vq9Vyuby+vr6+vj4rKwvz2eIEeKa1tVUmk/H5/ISEhPDwcJ9OcYDmgskqFm+BC3Ox2+1NTU1wTZ0/IZPJkZGRkZGRTqdTqVQGfeZEgiGSkJCQlJTknxYuzEEXuImNAE7MpbGx0el0+t9c3FCp1D4mO3V0dISEhPB4PF9kISXADy6XS6/Xw1mtycnJd1/gz33EYW4jv1XnC3BhLi0tLQCApKQkrIX0AIIgEonEZrORSCQejxcaGsrj8eDER6ylEXgBm80Gp8nrdDqj0YiiKIvFcuccwBDCXLxDe3s7l8sdyhIM30EmkydNmmS1WuHnT6lUtrW1AQC4XO64ceOwVkcwJBAEgcmQQkJCwsLC4uLiQkNDcfK1YbFYsJpn4C1wYS4dHR1DSRDlB5hMJpPJhMtenE4nXLjV45UOh8NsNrPZbH82oQl6w263m0wmi8UiEonujpWQyeSxY8ey2Wy8DRS6XC6LxRLoWw/jwlza29th5teAgEql9jEBD2YwBQDQaLSQkBA2m81ms5lMZkhISEDv+xsoaLVao9FoNpvNZrPJZILfATQaLSwsrMdn1TNHAX6AqWfwqa3/4MJcJBJJAJlL3wgEgkmTJrk/3CaTSaFQOByO6OjoHlNAwRncRKi4/yAIYrPZ6HR6j82NtrY2k8nEZrNDQkKEQiE8CLhWpMFggOvpsRYyJHBhLu3t7UNMQIcrGAwG3LHBfcblcvW2DKSjo6OpqYlGo9HpdCaTSafT4aeKx+PBvArDHJVKZTAY4M5+NpvNZrPBxsjIkSN7nJSUm5sb0MO3EIPBEOjNFoATc5FKpfifyzwUYC7lHt8SCAQsFsv98MDIsc1mi4+P79FclEqlTqej0Wg0Go1KpcKSqVQqg8EIiEn3VqvVZrO5XC6n0wnTX8GfUVFRPXY2NRqNVquFngsH6RgMBp1O7y0eEQTOAgAwGAzeyluKIdh/HF0ul1ar5fP5WAvBBhgq7v/1drtdr9c7HA74WLrPp6Sk9Ni17OzsVKvV5LuAWYjuvl6v11utVs9HFOb+6K0lpVQqYYLFbsTGxvb4P5VIJDADKYlEolAotN/pLfWHO03U8MHpdFqtVqLl4gVgOvKAXqPsT7qtWHO5XLAV0FtYAbZu3Nl9DAbDnj17li5dymKxevz4KpVKiURydyHJyck9mgtcwkcikVgsFrQtKpVKJpN7a6klJia6t8Xo7+88zIDR3CCYL469ucBcnoS5DA74lPYxNUMoFMLdNiDvvffegQMHNm3a5HnSk+Tk5B4np/ZGXFwcnGc4ZsyY/gQgAy626n+0Wi2LxcLJdJuhgP0gBWEufkOpVH700Ud/+9vfenOWwQF3icJqO5fgo8eNzQIRwlyGEf/6178YDMarr77q3WLJZHJqampXVxfcroBgKDgcDoPBQJiLd9BoNOBe26YQDJ2Ojo4vv/zy7bff9kWkMCIigs/nNzQ04DzxIv7RaDQkEik4vmuxNxej0chisYiuuK956623RCLRc88956Py09LS7Ha7n/eKCj40Gg2PxwuIWQX3BHtzsdlsgT4TEf/U1dXt27dv06ZNvvtTMxiMuLi4lpaWe25XTNAHQRNwAXgwF5gUB2sVQc4bb7yRlZXl6y0H4+LiGAwGEdkdNCaTyWazBY25YN/6cjgcRJ/Ip5SWlh45cuTYsWO+XsEEN+qurKxUq9V4SIkScCiVSjgRGWsh3oFouQQ/b7zxxpQpU+bPn++HusLDwyMjI4nI7uBQKBQCgSA4VjAAPJgL0XLxKadOnTp//vz777/vtxpTU1Ptdnt7e7vfagwO4Bp6uJN8cIALcyFaLj4CRdF//vOfDz/88JQpU/xWKYzstra2EpHdAdHV1cVgMIJpTgb25uJyuYhsJj7i+++/r6ioeO+99/xcb3x8PJPJJCK7A0KhUHh35jTmYP9UU6nU3lJGEgwFh8PxzjvvLFu2bPTo0X6umkQipaamKhQKYs5uPzEYDBaLJZj6RAAPo0U0Gg3uXEngXXbt2tXW1nbmzBlMandHdvPy8oiW6T3p6urqbZ164IL9f50wF19gNps3bdq0atWqAS1x9i5EZLefoCgql8uDrE8ECHMJVr744gu9Xv/mm29iqIHBYMTHxxOR3XuiUCicTmd0dDTWQrwMYS5BiMlk+uCDD1avXg33QsGQuLg4IrJ7T6RSKZ/PD75FMIS5BCE7duwwmUzr16/HWggR2b03ZrNZq9UGX7MF4MFcmEwm0Wz2Ikajcdu2bWvXrsVJHz48PFwgEBBzdntDKpV22ysiaMDeXHg8nsVisdvtWAsJEj755BOz2ez1jFBDISUlhYjs9giCIHK5PCYmJmim/HuCvbnAKYkwKTHBENHr9du2bVu3bh2uZkwQkd3egKHcINhFpEewNxe4/7xOp8NaSDCwfft2l8uFq2YLBEZ2GxsbsRaCLyQSiUAgCNblL9ibC2y56PV6rIUEPFqt9uOPP/7rX/+Kww48jOwqlUoisutGrVabTKa4uDishfgKvJgL0XIZOp9++imJRMJhswVCRHa7IZFIIiIigmB/ot7A3lxgt4houQwRk8n02WefvfLKK3heVgsju3dvujYMMRgMWq02iJstAA/mwmQy2Wy2SqXCWkhg8/nnn1ssljVr1mAtpC9gZLetrY2I7EokEi6XGxxZ/nsDe3MBAERFRclkMqxVBDBWq3X79u1r1qyJjIzEWss9ICK7AACr1apUKoO72QLwYy5yuRxrFQHMV199pdFo1q5di7WQe+OO7A7ntmpbWxuTycT/N8EQwYu5SKVSrFUEKg6HY9u2bS+88EKgTCGHkd3GxkY/RHadTuf169d98dWFoqhCoaisrBzoVk1Wq1Umk8XHxwflxDlPcGEuIpGI6BYNmt27d3d2dq5btw5rIQPAp5FdT88ikUg0Gs0XCWVsNpvdbtdoNAO1yJaWFiaTifmaUj9AmEtg43K5tm7d+vTTT8fHx2OtZQAwGIyEhAQfRXabm5vdxxQKZcyYMb6Yr8xkMgexestisXR1dSUmJgZ9swXgxFyIgO6g+e6775qbm19//XWshQyYESNGsFishoYG7xZrMpn81sUehEE0Nzez2WycrCn1Nbgwl9jYWJ1ORywvGigoim7ZsmXJkiVJSUlYaxkwJBIpLS1NpVL1EdlFEESj0TQ3N3d2dlosFvd5i8UCl0HqdLrm5mZ3SEWn092+fdvlcnV1dSkUCvD7ykCNRtOfMmGTx2KxtLW1SaVSFEU93+3o6GhtbfWcYTxQczGZTAqFIjExcUB3BS64MBf4525pacFYR6Bx/PjxmpqaDRs2YC1kkISGhgqFwt4iuwiC3L592+l0xsXFoShaVlamVCoBAB0dHWVlZRKJpKurq76+vr29vba2tqamxl0m/JOG9QAAIABJREFUAIBCoVCpVLPZLBaLa2trjUZj32XK5fKKioq2tjaVStXU1KTX6+/cudPa2grvamhoqKurEwqFPB7v9u3bgw4VtbS0cDicoB8kcoMLc4FfvIS5DJQPP/xw3rx5OTk5WAsZPH1Eduvq6phMpkAgoFKpsbGxERERYrHYZrPBY5fLBQDIy8vLz8/n8XgKhUKj0YSGhrLZbAAAn88PDw9ns9lpaWn9KVMkErkjrCNHjszJyQkLC+vq6oJn5HJ5REQEjUaDZUI/Gig6nU6pVAZiG3PQ4MJcQkJCBAIBYS4DorS09Ndffw3cZguETqfDyK5nDwUAgCCIQqHwXHcTExODIAiMzVEoFAqFAiMXdDodPrGefR83FAql/2UCANxbXIeEhNhsNnick5MTExMDfk8MMrgR9MbGxrCwsGG1hTYuzAUAkJiYSJjLgPj3v/89YcKE+++/H2shQ6XHyK5Op0NR1DOowWKxAADdPAgCl6fdc+BpQGVSKBR3zCU0NFSr1dbW1prNZiaT6RmL6SdyudxoNKampg70xoAGL+aSlJTkOYJI0Dd1dXVHjx594403sBbiBWBkV61We0Z24QPsuZwVbigO7eDuEshkMpPJ7LuiAZXpSVNTk0wmS09PF4lEg5gygyBIc3NzVFRUSEjIQO8NaAhzCUi2bt2ampq6YMECrIV4BxjZra+vd/c4uFwumUz2TMQBs7i713x79k30ej2CIJ47ivXYuLhnmT1iMBgkEklMTMygZ+JJJBKn0zl8Bonc4MVcUlJSGhoaBtHgHIbI5fJvv/12/fr1wbSTYUpKisvlamtrgy9pNFpsbKzVatVqtfCMUqkUCATuZcQul8sdE1Gr1VwuF86Ug40Rg8Gg0+kQBIFxX/iz7zLhnsJuz0JRFEVRBEFgLEapVKIoqtFojEaj0+m0WCxWqxUW23cIBoar4+PjgzXdXB9QNm7ciLUGAACwWCw7d+585pln8JyOBCds3rxZLBbv3r2bSsV+N15vQaFQyGRya2urUCiEBhEeHu5yuVpaWhwOh1wut1qtmZmZMGKiUqksFovZbHY6nVKp1Gg0ZmVlwb8GjUZTKBRyuZzL5dLp9La2NoPB4HA4WCwWi8XqrUylUtnR0eF0Ol0uF5vN1mg08CWKouHh4Xa7XSaTSaVSDocDR4vIZHJoaGhra6vBYLDb7QwGA45S3U19fb3D4cjKyhoOU3K7QcJJY0GlUkVGRp49e3b27NlYa8E1MDHi+vXr//GPf2CtxcvAiScMBiM3N9d9EkEQs9nMZrM9m2l1dXVqtXrSpEkmk4lKpXaLtsBGRx/Nuh7L7BuHw0GlUqFBOJ3Oftq6TqerqKgYOXLk8Jnb4gle2tV8Pl8gEIjFYqyF4J09e/ZYrdYXXngBayHexx3Z9ZxIQiaTORxOjy5AIpE4HM7dcVwY3+2joj7K7A0ajeZuevTTWVAUra+vj4iIGJ7OAvBjLgCArKwswlz6BkXRHTt2PPnkk8H6eYWR3YaGBhjO6A0EQfCfiLe9vd1isXSbxTesIMwlkDhz5oxYLH755ZexFuJDYGS3tyn2KIp2dnZqtVqn09nS0uKO6eINm83W2toaHx9/zwHyIAZHEcGsrKyioiKsVeCaTz75ZObMmaNGjcJaiA+Bc3abm5tFItHdM1BIJFJMTAycL4tnGhoa6HR60Cey7BsctVxycnK6urqI3Au9UV9ff/bs2YDIZTlEYmNj2Wx2fX091kIGiUqlUiqVaWlpwTRXYBDg6JcfN24ciUS6efMm1kJwyvbt2xMSEubNm4e1EJ8D8+xqNJrBLRHEFqfTWV9fLxKJcLg1nZ/BkbmEh4fHxcVVVFRgLQSP6PX6b7/9du3atZ4r8YKY0NBQkUh0z8guDoEZJFJSUrAWgj04MhcAwNixY4mWS4/897//RVF0xYoVWAvxH8nJyX1EdvGJVquVyWRpaWlwHuAwB1/mMmbMGKLlcjcIgnz++ecrVqwYVtOX3dkYzGYz1lr6BYIgd+7cgTO2sNaCC/BlLmPHjm1oaCC2du3GuXPnmpqagnLiXN/ExsaGhIR4Pc+uj2hqanI4HMN5Yks3cGcuKIpWVlZiLQRf7Ny58/777x85ciTWQvxNAEV2dTpdR0dHSkoKg8HAWgtewJe5xMfHi0Sia9euYS0ER8hksuPHjw/DZgukx8iuy+VqamryzJXtN1AUhYkaPHG5XHV1dXw+Pyoqyv+ScAu+zAUAkJ+fT5iLJ//97395PN6iRYuwFoIZMLLrzsagUChKS0slEgkm3We9Xn/jxg130gZIQ0OD0+lMT0/3vx48gztzmTRp0pUrV7BWgRcQBPn6669XrFgxnGeR0+n0xMREiUSiVqtv3bpVU1MD2w6YmItSqbTb7ZWVlW6zU6lUcIRoGGZs6Rs8mktnZyfclYbg9OnTra2tzz//PNZCMCYqKopGo1VVVUFDuTthpd+A2yGhKNrc3FxRUWEyme7cuRMVFUWMEN0N7sxl4sSJVCr16tWrWAvBBTt37nzggQeGeXtbpVJdv37d4XDA1HDu8y6Xyxe7wfaBwWDwXCppMBjKy8sBAMMt83Y/wZ25hISEjBw5kgi7AACkUunJkyeHbSgXAAA7IFVVVTabrcesZn7epVOpVHomlEMQBMZ3A2umn9/AnbkAACZNmvTbb79hrQJ7du3aFRERETRZuAcBjUbrLX0kAIBMJvu5ZwQz6XqegVnvWltbKysr7x5FGubg0Vz+8Ic/XL9+PVDmZfoIFEX37NmzbNmy4RwmhPNc0tPTSSTS3TloEQTxp7nArL29vavRaJqamvwmJiDAo7lMnz7dbrcP857RlStXmpqali9fjrUQ7ImOjh49ejSFQrnbX4xGo9+SQCsUih6TbMOsmunp6RkZGf5REijg0VxGjBiRlJR08eJFrIVgyb59+3JycoI7L1T/CQ0NHT9+PIvF6vZ4w1Tb/tGgUCjuNjISiRQaGjpx4sTo6Gj/yAgg8GguAIBp06YNZ3Ox2+2FhYXDag30PWEymePGjYuIiOjmL/6J6dpsNqPR6HkGNljS0tJGjx5NTPnvEZyay/3333/16lU/DzTih6NHj2o0mieeeAJrIfiCQqHk5OTEx8e7z5BIJP+YS7dxIhKJxOVy8/LyiAZLH+DUXKZNm2a1Wq9fv461EGzYt2/frFmzYmNjsRaCRxITE917jKEo6p+YLpw7BwCAoeWkpKSxY8fec5PpYQ5OzSU5OTk+Pv78+fNYC8EAtVp9+vTpZcuWYS0EvwiFwtGjR8P9g0wmk6+3GXE4HHq9HgZceDzexIkTh3nm7X6CU3MBAMyaNevcuXNYq8CA7777jkajDefpLf0BhnjZbDaKoiaTyad1qVQquIVjWlramDFjhvM6rwGBo61FujF79uy9e/fqdLphlX4NALBv374///nPHA4HayF4B4Z4a2trDQYDl8sFANjtdrPZ3G1Mx+l0slisHv+eNpsNDjaRyWSYqR9uWU2j0TxzFSuVytDQ0MzMTMJWBgRe9oq+G5VKJRQKDx8+/Mgjj2CtxX80NTWlpKQQe2ZDtFqtXC53uVzO30EQxOVyxcTEJCUluS9zm0t7e3tjY+Pd5YwYMaLHjNn9uR5FUblcDhO1KJVKqVRKpVIpFArVg5CQkJCQEK/8ysEEflsufD5/7Nix586dG1bmcujQIT6f/8ADD2AtxCdYLBatVmu32x0OB/wJD4RCYY9r/1wul91up1AoTCYTPsYkEolKpXZbEwCdBQAQFRUlFAq77RbU4+w7SExMDHQNl8sFv2WdTieKop67QZNIJHcKKDKZTKfTnU6nw+FwehAXF+dpdm7UarVWq6XT6XQ6nfE7vYkJPvBrLgCAOXPmHDp0CGsVfqWwsHDBggX93Ooch9jtdovFQiKReDze3e8aDIbGxkYGg0Gj0eC6IXjgdodu8Pl8Pp/f/9oH+ndz94b6eWNERERERET/y7fb7dBM7Xa7u4sA09MMhzFs/HaLAADnz5+fMWNGY2NjcnIy1lr8QXt7e3x8/IkTJ+bOnYu1ln5ht9vVarXFA5iMks/n5+TkYK0OR6Aoarfbbb/D4/F6NF+pVGowGFi/w2azA7qZg+tvyClTpnC53NOnT7/00ktYa/EHhw4dCg0NnTlzJtZC+ovVaq2vr4dPQnh4eExMDDwmZqx2g0QiwT5R35ehKGqxWNRqNcwaQyKR2Gx2SEhIXFxcIAb4cd1yAQA8+uijZrP55MmTWAvxB1OnTk1KStq7dy/WQgAAAEEQo9FoMBj0er3L5eqxJYKiaEB/teIWuGbKbDYbjUaz2ZyQkNBbzxHP4LrlAgCYP3/+iy++aDQaA9G5B4RMJispKXnttdcw1ICiaFdXl16vNxgMcMExlUrtrQ0PACCcxUeQyWQOh8PhcIRCYR+XVVZWkslkLpcL/0d42+o3AMzF4XAUFxcH/ZjR4cOH2Wz2nDlzMNRAIpGam5sZDAaPxxsxYgSXyyVmuOMZPp+v0+lkMllLSwsMooeFhYWFhYWGhuLB9/HeLQIATJo0KTc3d9euXVgL8S0zZ84UCAQHDhzwQ10IgvSYfokgQIHDUhCHwzFlyhSsFQGA/5YLAODBBx/8z3/+E9zde6VSeenSpe+++86ntTidTpVKpVKp1Gp1RkYGkbA+aKDT6UKhEPahnE4n1nL+D/yuLXLz4IMPSqXSGzduYC3Ehxw9epRGo/loBBpBELlcXllZWVJSUldX53K5kpOTh9uiiuFDb3N2NBpNQ0NDt6w0vlXit5oGzZgxY5KTk4uKiiZMmIC1Fl9x/PjxGTNm+CJordFoampqXC4Xn8/PysqKiIjAW9iPwD8gCKLRaDo6OjgcDpzKTKPRfFpjAMRcAADr168/duzYnTt3sBbiE+x2e2Rk5JYtW1588UVfFN7V1fX/2rvvuCav/XHgJ5sZCBCQKciwIMsKKoqjirtu0VZES7+v2oFWvD+LvW2t2qu3Wr/99nbdau3AeilaFa1bwVWRKojK3kPCCCSQvZPn+f1xvuZLIURGJpz3H76eJE/O+QTJh/Oc5wwPDw9j/yYhVkEoFLLZ7M7OThzH3dzc/Pz8jDcryjqSy7179+Lj48vKyiZMmGDuWAwvNzd33rx5jY2N/v7+5o4FGRU0Gg2Hw2lpaZFKpVOmTDHSoEcruCwCAMTFxXl6emZnZ4/I5HL58uUJEyYMP7NgGNZrzh6C6EQikcaMGTNmzBihUGi84dTW8btIJBJXrFiRnZ1t7kCM4tKlS0uWLBlOCVKp9MmTJ2jfHGSw+hseaRDWkVwAAKtWrXry5InO1TesWkNDQ01NzZCTC9zur6ioCMMw7coACGIJrCa5zJ4929XV9dSpU+YOxMAuXLjg5OQUFxc3hPeq1eqysrLm5ma4XvSInyGBmAaGYV1dXcMvx2qSC5lMTkxMPH78uLkDMbDLly8vXLhwCLdy1Gp1SUmJWCyOjo728fEZwSMMRxgejxcWFnbs2DFzB9Kvrq6usrKytra2YZZjNckFALB+/fqKiorS0lJzB2IwEonkjz/+WLx48RDeW1FRoVAooqOjrXG+rAnAVQssEJlMdnV1teRmJpPJDAgIqK2tHWb7xZqSS3x8vL+/f2ZmprkDMZjc3FylUrlgwYLBvhHHcUdHx/DwcDSxsD8ffvihsbccGRpHR8e7d++uXr3a3IHo4+fn5+npWVVVpVKphlyINSUXAoHwyiuv/Prrr5b5SzME165di4mJ8fDwGOwb4b5cqM3Sn9LS0sOHD5s7CusWGBhIJBKbm5uHXAJpz549hovH6Ly8vD799NO5c+eOHTvW3LEYwPbt25ctWzZnzhxzBzJQtbW1//nPf65duyaTyYKDg7XPS6XSn3766cqVKxwOx9PTk0qlamdd9/dSfX39F198MWvWrMuXL587d27y5MkkEkkoFP7yyy+ZmZm1tbVhYWFUKvW55fcN6d69e6tXr+ZyuePHj6+qqoJjo/orWY+8vLwjR47U1tY+evRo0qRJ8Emd5fT6LBwO5/Hjx2VlZeXl5cHBwWQy+dGjR7dv3y4rKxs7diyO41lZWR0dHdoNBuRyeVZWVlZWlkQiGTt2rLYDbggxGxCRSMRxvL29feg9eri1iYyM3Lx5s7mjMICnT58CAG7evGnuQAZq69atM2bM4HK5169fJxAIBw4cgM9zOJzAwMBjx44plcr09HQAgL+/f3x8vJ6Xjh07Bm+cZ2RkTJw4EQBw7969mpqapUuXXrt27cmTJ+Hh4YGBgTweT3/5OkO6e/duUlISAODixYvXrl3Dcby/kvVIT0/PzMyUSCRZWVkODg7wSZ3l9P0sZ86cgckoLy8PvhHDsMWLF2dlZVVWVsLt7g4ePAhfampqmjFjxtGjR1ks1ty5c8eNGyeTyYYWs8EJhcLbt2/DraCGwPqSy8GDBxkMhlwuN3cgw/XDDz/Y2NgM+X/O9JycnPbt2wePw8LCpk6dCo/T0tLodLpKpcJxnMViAQA++OCD57704Ycfwi8kjuNVVVUYhs2bN+/s2bPw1StXrgAAdu3apb+Q/kLau3cvAADDMPiwv5L7o1QqXV1dq6ur4cNt27bpL6fvZ4GbhWZmZsKTFQrFqlWr4HFra2vP5DJv3jztH8uLFy8SCITs7OwhxGwMUqn09u3bcCvbIbCO4f89JSUl/f3vf7969aq1r01348aNGTNmWFGP7KVLl0JDQwEABQUFOI7LZDL4fG1tLZFIhC1nHx+foKCgvLy8574EP/irr74KABg/fnx7e3tOTk50dPSDBw8AAGKxOCYmBm6HqKeQ/kLqSU/J/YG7nSQkJBw5cmTRokUwd+gpp9dnAQAkJCSEhoYePnx4/fr1AIDs7OzExERYeM/7RHV1dTk5OdolopcsWcJms93d3YcQszHAn+fQ5wcYMtGZyqxZs9auXWvuKIYFDqjVXllYi+zs7A0bNhw/fnzRokWRkZHwyU8//RQAkJ+fj+O4XC63s7NLS0t77kv79+8HACgUCvjwzp07AAAOh9O3Uj2F9BdSz5aLnpL1uHjxIoPBAADExcXBJoyecnp9Fujbb78FABQXF+M4vnbtWu2rIpEIPGu5nD9/HgDwxx9/9CpwaDEbXFVV1cOHD4f8dqtMLt9//72NjQ2fzzd3IENXXFwMABjO/9yQG6tD9t5777388suwR2DFihXab7JcLl+zZk18fHxOTs6WLVsSEhK0sel5qdcX8s8//wQAwC4SLXiynkL6C6lnctFTsn5dXV1paWlUKtXR0bGiokJPOTqTi0gkotPpb7zxRkVFxYcfftjzeW1ygVdPPV/Fcbyzs3PIMRuQWCy+c+dOe3v7kEuwyuTS3d1No9HgJa6V+vzzz11cXOAuokMA/+NZLJZho9IDrgR45coV+HDFihURERHwWKFQvPvuu4WFhdeuXausrOz5Lj0v9fpCdnd3k0ikqVOnap/p7Oz87rvv9BSiJySYXGA3jZ6S+yMWi7///nt4nJ+fTyAQdu3apaccnckFx/GtW7fa2dmlpKQ8ffpU+2TP5NLa2kokEiMjI+E2sjiO19XVXb58eQgxG5ZarS4sLHz06JG232oIrGmcixaDwVi0aNF//vMfcwcydDdu3JgzZ86QV0iwt7cPCAior69ns9mGDaw/cHvmc+fOqdXq3Nzc4uJiHo9XW1vb2Nj42WefwUxHoVAEAkFFRYV2GVc9L8HRWdoxoAwG46233rp///6sWbN+/fXXjIyMpKQk2IvRXyF6QoLLAxcVFd29e9fW1ra/kvuDYdju3bvlcjkAIC4uLjg4mMlk6omw12fRSk1NlclkXV1dfn5+2ifhQpMSiQQA4OXltXHjxpKSksTExJs3b3777be7du1auHChnrpMQKPRlJaWqlSqsLCwYU0rMWC2M6UzZ84QicSmpiZzBzIUCoXCwcFh+H+IGhsbb9++3dDQYJConis5OZlIJHp4eBw+fHjfvn1EInHHjh04jl+4cMHGxqbnL5Wfn9/169f1vHT69GnY8ZmYmAh7JXAcl0gkGzduhKfR6XTtvRI95fcXUkNDg4eHB4PB+OGHH/SU3B+hUGhraxsREfHVV1/t2bMnJSUFbvassxydn0Vr/vz5V69e1T5sbm6G6w2GhYXBNpdAIFi5ciUs09/fv7CwUP9PwwQqKyvz8/MlEskwy7GOlej6UqvVfn5+b7zxBmwAW5e7d+/OnDmzpqam5zi0oWGz2bW1tQ4ODiEhIcZbr1CLw+E4OzvDUV48Hg92eZ4+fVqtVs+bN6+rq0sikQgEgrKysjNnzty6dUvPS/1VweVym5ubQ0NDtffR9BeiMyQAgEqlUqvVPW/G9S25PziOw32va2trQ0JCes0DGng5AAAWizWQQWhtbW0cDicsLKzXFNZB1WUocFqWARaRMkCiM5P333/f29sbXldbl08++cTX19dQpYnF4kePHt25c6erq8tQZQ5cbW2tu7t7r/+Fjo6O5ORkPS8ZpPzhhI2YgBUnl/r6eiKReP78eXMHMmgJCQlJSUmGLbOtrW3I3cPDcfPmTQDAK6+8cufOnebm5ubm5pycnHXr1tXV1el5ySDlG+9DIQZhrZdFUEJCgp2dHRwsYC3UarWLi8uhQ4fefPNNc8diGNevX7948WJubm5jY2NwcPCCBQt27doF10/U85JByh8yFouVkpLS36ubNm1KTk4eTvlWQSKRKBQKFxcXI5Vv3cnl5MmTSUlJDQ0NPXvjLVxBQcGUKVMqKirg0FJjw024U6WeugwShgE/C47jSqWyv1fJZPII3t0JLjTHZrO7u7tdXFwiIiKMVJH1Df/vaeXKla6urhkZGR9//LG5YxmoP/74g8lkvvDCC6aprra2ViwWw02w+tuLz1D0fPMNkhQMmCUJBILxVr23WGKxmM1md3R0aDQaFxeX8PBwV1dX41Vn3S0XAMB777138uTJxsZGa/lTs3z5cjKZfObMGdNUJxAI2tvbORwOAMDFxcXV1dXV1RVtkDYKlZSU8Hg8W1tbuKmICRZwsPrkUlNT88ILL1y8eHFoi0WaGI7jTCbzo48+SktLM2W9arWay+VyOBw4Z4JOp0dERFhLOkYMgsPhUKlUU+4RbvXJBQAwe/ZsBoNx9uxZcwfyfKWlpZGRkUVFRS+++KJZAtBoNN3d3SKRaNy4cWYJADEeHMfFYjGRSDTBiKeBsO4+F+iNN9547bXX2travLy8zB3Lc9y9e5dOp0dFRZkrABKJxGQy4ej4vpRKpUAgoNPpo7A/wkrBhCIUCvl8Pp/PV6vVnp6eISEh5o4LgJHRclEoFD4+PmlpaXDdDUv26quvCgQC7fodlobD4cCZgXAqMESn043dE4wMgVgsrqmpEYvFOI6TyWTnZyyk2QJGRnIBAPztb3/Lzs6uq6uz8K+Bj49Pamrq3//+d3MH0i+NRiMWi0UikVAoFIlEcPLe2LFjh7+VNTI0/W0BrlQqm5ub4R8AOIfT0oyQ5AKHV504cWLNmjXmjqVfTU1NAQEBd+/ejY+PN3csA6VSqeBe5Tr32REKhUql0tbW1tbWdsgzvJGeVCqVTCaTyWRSqVQikUgkEo1GM23aNHPHNRQjJLkAAJYvX97d3X337l1zB9KvrKysTZs28fl8y/w7MwQ1NTXt7e3wmEaj2T7j5uZmRct3Wggcx/Pz8+FqEkQi0dbW1v4Zo45GMR6LvogYlG3bts2dO7ewsDA2Ntbcseh2//79qKioEZNZAAAhISFBQUGyv+ru7ra3t9eZXHg8HoZhNBqNSqVSKJQRvwWtRqNRKpVKpVKhUCiVSrlcrlAoFApFZGRk3+t3AoEQHBxMpVJtbW1HRof6yGm5AACio6OjoqIsdhfeyZMnT5069auvvjJ3IGYDx3FpH5LJZJhlgoKCdF52KZVKIpFoaf1oGIZpNBp1Dy4uLjoHDT148AB2WhEIBCqVSntm7NixlvahjGFEJZcff/zxnXfeefr0KdxHxqLIZDJnZ+eMjAyTrSdmmTQajUKhUD2jVCpVKlV5eXl2dnZGRkavtsyjR4/gopBkMhnO9yESiSQSKSQkRGfLiM1mq1QqEonUsxwikejq6qrzy8zhcNRqNYZhcA9PHMfhVYmPj4/OAaxPnjwRiUR9N/yMiYnReY9GKBQSiUQKhQJ3cXvuD2eEGVHpc8OGDR9++OHhw4ctcBvJoqIipVI5depUcwdiZiQSqeeFoVAo/Nvf/vbjjz8mJSXJ5fJeKWP8+PFKpVLbQNBoNBiGqdXq/jqPuVyuRCLRrqQJaTSaF198UWfLqLW1VSKREAgEbbuDTCYTCARPT0+d5Xt7e2MYBtMcuYf+Puwwp25bPdOt7mASH330EZPJhMvBW5TPPvvM3d3d3FFYlpycHD8/P3d39zNnzpg7FsTwRtrtw3feeUcgEJw4ccLcgfT2559/WukNRWOQyWTvv//+ggULJk+eXFZWtmrVKnNHhBjeSEsunp6eiYmJ//M//2PuQHp78OBBXFycuaOwCPn5+dHR0UeOHPnuu+9OnTrV31wExNqNtOQCANi+fXtpaekff/xh7kD+z9OnT9va2lCHi1wuf//992fOnBkYGFhWVrZ582ZzR4QY0QhMLpMmTZo2bdq//vUvcwfyfx48eEAmkydNmmTuQMzpwYMHEydO/O677/79739fvnzZ29vb3BEhxjUCkwsAYPv27efPn6+pqTF3IP+rsLBwwoQJljOjzMRUKtWePXumT5/u6+uLGiyjx8hMLitXrgwMDDx06JC5A/lfljxu2NhKSkqmTJly6NChzz///Nq1a76+vuaOCDGRkZlcSCTSjh07jh07xmKxzB0LwDDs8ePHMTEx5g7E1NRq9cGDB2NjY+3s7J48ebJt27ZROJBsNBuZyQUAsHHjRnd39y+//NLcgYDq6mqhUDjakkt5eXlcXNzevXs/+eSTP/74Y/h7SyJWZ8RcvtuLAAAgAElEQVQmFxqNlpaWdvjw4b7bg5vYw4cPqVRqeHi4ecMwGY1Gc/DgwUmTJpHJ5MePH+/cuROtxjA6jeT/9bffftvGxubf//63ecN4+PBhVFTUyJjn+lz19fUvvfTSnj179u7dm5eXB3doR0ankZxc7O3t33nnnS+//FIsFpsxjIcPH46G3lwcx7///vuoqCiBQPDnn3/u3LkT7S4wyo3k5AIA2LZtm0Kh+Omnn8wVgEajKS4uHvEdLk1NTXPmzElNTd2yZUthYWF0dLS5I0LMb4QnF1dX19dff/3QoUN69u40qvLycolEMoKTC2ywREREcLncBw8eHDhwwAS7bSFWYYQnFwDAe++919nZmZWVZZbai4qK7OzsTLMttOk1NzfPnz8/NTU1NTX14cOH5tqMCbFMIz+5+Pj4rF+//uDBg33X+DGBx48f61zTcAQ4depUdHR0a2trfn7+gQMHRkmPNTJwIz+5AADS09Orq6tPnz5t+qqLi4vNuAWakbDZ7BUrVqxbty4xMXGUdFcjQzAqkktoaOjatWv37t1r4sYLjuOlpaUjLLmcOnUqPDy8pKTk1q1bR44cGUnrjSOGNSqSCwBg79691dXVp06dMmWlzc3NPB4vMjLSlJUaT2dn5+rVq9etW7d69eqSkpJZs2aZOyLEoo2W5BISErJu3ToTN16Ki4sJBEJERITJajSe06dPh4eHFxUV5ebmHjlyROeStAjS02hJLgCAPXv21NbWnjx50mQ1lpSUBAQEWPsqzXw+/80330xMTFy4cGFpaemcOXPMHRFiHUbU1iLPlZyc/ODBg4qKCtPcvklMTNRoNNnZ2Saoy0iuXLnyxhtvaDSa77//funSpeYOB7Emo6jlAgDYvXt3Y2OjyRovVn2rSCAQvPnmm4sXL542bVp5eTnKLMhgja7kEhQUtH79+r179/ba2sYYJBJJfX29lfbm5uTkREREnDt3Ljs7+7fffnNxcTF3RIj1GV3JBQDw8ccfNzY2mmDvkdLSUgzDrK7lIpVKt23btmDBgqlTp5aXl69cudLcESHWatQll8DAwA0bNpig8VJSUuLo6BgQEGDUWgzr3r17UVFRv/zyy7Fjx3777Tc3NzdzR4RYsVGXXAAAH3300dOnT48fP27UWoqLiyMjI61lYUe4S9nMmTNDQkLKy8uTk5PNHRFi9UZjcgkMDHz99dd37dolk8mMV4sV9ebev39/4sSJhw8f/u677y5duuTl5WXuiJCRYDQmFwDA7t27+Xy+8RapgwP/Lb83F+5SFh8f7+/vjzb9QAxrlCYXT0/Pd999d//+/TwezxjlNzY2CoVCC2+5lJSUxMXFwV3Krly54uPjY+6IkBFllCYXAEB6ejqRSPz888+NUXhxcTGRSLTYRbm1m344ODgUFRVt3rzZWvqGECsyepOLs7Nzenr6v/71LzabbfDCS0pKAgMDLXMCTllZ2ZQpU+CmH3fu3AkKCjJ3RMjINHqTCwDg3XffdXFx+cc//tHzyfr6+t27dw+2qPfff3/v3r2//fZbSUmJQqGwzN5c2GCJiYmh0WhPnjxBm34gxoWPbkePHqVQKLW1tTiO8/n89957j0Kh0Gg0tVo9qHJWr15NIBDgxQWRSCSTyePHj9+5c2dGRkZBQYFAIDBO+INQUVERGxtrY2Nz4MCBwX46BBmC0Z5c1Gp1aGjounXrDh8+7OLiQqFQYM6tqKgYVDl79+7ttc4jgUCg0WiwaeDp6SmXy430EZ4LwzC4qtPkyZMH+7kQZMhGe6uYRCKtXbv2t99+e+edd3g8nkqlAgAQCISSkpJBlRMZGdlrgwEcxxUKBYZhBAKhb+oxmcbGxpdeemnLli1bt27Ny8sbqUuFIxZoVCeX2tra1atX7927l0gkYhiGP1t9gkKhFBcXD6qoiIgIXNfiFUQiMSAgICUlxQDhDhKO499//31kZGR3dzfc9EPbLkMQUzBvw8mMPvjgAxKJpPP7RiAQFi5cOKjSMAzrbzXZc+fOGekjQB0dHZs2bYLJUQvuUkYmk3fu3KlQKIwaAILoNHqTy/3793t2svTi7u4+2AL77tpDJpNjYmJ6fe0NS6PRwKXhfvzxR+2Tx44dc3R0nDBhQmFhofGqRhD9Rm9ywXG8oaEhMDCwv1XpOBzOoErbvHlz31SVl5dnpOCh/fv3wz5je3v7p0+ftre3L126lEgkvvvuu2bsQkYQfJR36AYEBBQWFk6ZMkXnlumlpaWDKq1XtwuFQlm2bNn06dOHG2X/7t+///HHH8Mlx5VK5aJFiyZMmFBeXn7r1q0vv/wS7VKGmNeoTi4AAAaDcePGjcTExF7DySgUyhBuGPVcI0aj0Xz66aeGiVIXHo+3evVq7UOVSlVRUREdHV1WVjZz5kzj1YsgAzTakwsAgEaj/frrrx999FHPJ3EcH+wNo56rt1AolNdffz0sLMxgUf4VjuMbN27kcDgajabn8/n5+a2trUaqFEEGx8yXZZbkhx9+IJFI2iYMvMwZFA8PD/heKpXKYrGMEST02Wef6ZxqSKFQpkyZotFojFc1ggwQarn8n//6r/+6fPmyjY0N7OKtqqoa7FKYEydOJBAIZDJ5x44dxlvBoKCg4IMPPsB1DatRqVSFhYVff/21kapGkIFDyeUv5s+ff/fuXQaDQSQSVSpVTU3NoN4+ceJEHMft7e3T09ONFCGPx1u1apXOzAJhGLZz587BRo4gBoeSS28vvvhiYWFhcHAwAGCwfbpw59a9e/c6OTkZIzYcx1977bXOzs5eXS0AABKJBO95eXt7b9y4sauryxgBIMjAja4dFweOz+evWrVqypQpg7rjU1ZWtnTp0qqqKiPdBv7qq6/S0tK0/2XwEkylUjk5OSUkJMyfP3/69OkTJkwwRtUIMlijLrkIBAKhUCjog8/nq1QqkUikUCikUqlMJpNKpSwWi06ni0Qi2PkiFAp7NRm0L2nZ2NjY2tr2fMbe3p5KpQIAHBwcKBQKnU4nkUjOzs5EItHZ2ZlEItHpdBsbG6cenJ2dtcfaPFVUVBQXF6dSqchkslqtptFoM2fOXLBgwdy5c6OiotBScoilGVHJpaOjg8PhdHZ2wgPtMZfLhQ/7rphLJpPhd5jBYFAoFAcHBxqNZmdnB3OEnZ0djUbTZgdbW1sbG5ueb++bSvh8fq8fqUAggOPcYCaCGQqexuPxMAwTCARyuRymPKFQ2CtCGxsbBoPh4uLS0NAgl8s9PDxCQ0NjYmKmTp06ZswYd3d3b2/vXjEgiCWwvuTC4XCam5tbW1ufPn3a1tbW0tICH7a0tCgUCngOiURiMplMJtPd3d3Dw4PJZLq5uTGZTBcXFycnJzqdrm0X2Nvbm/fj9ILjOJ/P5/P5PVtVPB6vsLCQw+GQyWQej8fhcNhstkgk0r7L1dXV29vbz8/Px8cHHnh7e/v4+Pj7+6Nxuoi5WHRyaWtrq6urq6urq6+vr3tG+7fd3d3dy8vL19fX19cXfpd8fX1hKmEymeaN3ATkcjmXy2Wz2e3t7dr0ymKxWltbWSyWXC4HABCJRB8fn6CgoKCgoMDAQO2BpaVUZESyoOTCYrHKy8tLS0vLysrKy8srKyulUikAwNbWNuiv4J/oXlcoSE9cLrelpaWhoUGblOvr6+G4PgCAt7d3WFhYRETEhAkTIiIiwsLCULpBDM5syUWtVpeWlhYUFDx+/LisrKysrEwgEAAAvLy8wsPDw8PDw8LCYCrx9vY2S4Qjj1wuh23Ampqa8vLysrKyiooKmUxGIBACAgLCw8MjIiJiY2NjY2PRpovI8Jk0udTX1xcUFBQUFBQWFj569Egmkzk6OkZHR8Nf6wkTJoSHh7u4uJgsHkSj0TQ2NpaUlMBcU1JSUlNTg2GYj4/P5GcmTZpEp9PNHSlifYyeXCorK2/dunX79u07d+50dnZSKJSIiAj4WxsbGxsaGqpzuQPEXAQCwcOHD+EfgIKCgtbWViKRGBkZOXv27Dlz5syYMcPZ2dncMSLWwSjJpbGx8fr167dv3759+zabzabT6TNnzpw9e/a0adMmTpyI+kqsSFtbW0FBwZ07d27dulVaWkogEKKjo196Bt0CR/QwZHIpLy+/ePHihQsX8vPz7ezs4uLipk+fHh8fP3PmTDhOBLFqIpHowYMHubm5ubm5jx8/ptFoc+fOXbp06bJly8aMGWPu6BCLM9zkguP43bt3f/vtt/Pnz7NYLD8/v+XLly9btmzWrFlorfkRrL29/cKFC7///vuNGzfUavX06dNXrFjxyiuveHp6mjs0xFIMPbmwWKxjx45lZGTU19dHRUWtWLFi+fLlEydONGx8iIUTi8VXr179/fffL168KBaLFy5cmJKS8vLLL6O2KjLo5IJhWHZ29vfff3/jxg03N7ekpKSUlBQ4GxgZzeRy+blz537++efc3FxXV9ekpKQtW7YEBgaaOy7EfAa+rpRSqfz555/Hjx9PJBKXLl169uxZpVI5/OWqkBGmubn5H//4x7hx40gk0vr160tLS80dEWIeA0ouSqXy22+/HTt2LIVCSUlJqa6uNnZYiLVTq9WZmZnh4eEEAmH58uWPHj0yd0SIqT0/udy/fz8yMtLGxiY1NbWpqckEMSEjBoZh586di42NJZFI27ZtE4lE5o4IMR19yUUsFu/cuZNEIs2aNauystJkMSEjz2+//ebm5ubl5XX69Glzx4KYSL/Jpaqq6oUXXmAwGEeOHDHqhqTIKNHV1bV582YCgbB582bUWzca6F5D9969e7GxsW5ubpWVlfAXwsTdzJBarT5z5kxCQsKXX35p2JJ5PF5YWNixY8f6vtTS0rJ7924/Pz+4aoHV0fPRzMvFxeXIkSMnTpzIzMxcsWKFdvEdZKTSkVyKi4sXL16ckJBw48YN7UY8ZtHS0tLW1nbjxg2VSmXYkslksqurq4ODg/YZ7e96fX19Xl6ednUCq9P3o1mUtWvX3rp1Kz8/f926dXCBPmTE6tWSEYlEgYGBs2fPVigU5mhJ9cblcgEAhw4dMnZF/+///T/tXmJ79uwBAEilUmNXOmrdu3ePSqX+85//NHcgiBH1brn893//d1dX14kTJyxkhCXcn8zYSktLDx8+rH2IJi4Y27Rp0z755JN9+/ahzWdHsL98dTUazXfffbd9+3azXA3V1tZevnyZz+dPnjx50aJF8Mm+3T1SqfT48eOdnZ2hoaFz586l0+lEIhGeplAo7ty5c+fOHS8vr4ULF2qHh9bX12dkZOzZs+fKlSsVFRXbt2/XaDSnTp3y8PCYP3/+vXv31q9fL5FITpw4QaFQEhMTtVVXVlaePHnS398/KSkJZpympqaff/75/fff7+joyMjI8PDwePXVV52dnevr60+dOkWlUlNSUhgMxkA+b15e3pUrV3x9fYlE4ubNm+GTQqHw5MmTlZWV48aNe+211+DVTa/4Q0JCZDIZjHDlypU0Gu3Ro0fV1dUAgCVLllCpVO1Hg2XK5fJTp06Vl5fHxcXNnz9fO5VZZ10mk5aW9uWXX/74448ff/yxKetFTKdnM6awsBAAUFFRYfoW1NatW2fMmMHlcq9fv04gEA4cOACfh8vTaS+LOBxOYGDgsWPHlEol3NXQ398/Pj4ex3GZTDZ79uwTJ07weLyvv/7a0dHxzJkzOI4fO3YMztnNyMiAU59+/PHHFStWAAAOHjyI4/jdu3eTkpIAABcvXrx27RqO4/v37wcAnD17duPGjRs3bgQA7N+/H8fxrKwsuEnrqVOnkpOTk5KSSCTSqlWr7ty588orryQlJZHJ5MWLFw/k86anp2dmZkokkqysLAcHB/hkTU3N0qVLr1279uTJk/Dw8MDAQB6P1zf+M2fOTJo0CQCQl5cH34hh2OLFi7OysiorK3t+NBzHm5qaZsyYcfToURaLNXfu3HHjxslksv7qMsz/5YC99dZb06dPN3GliMn8Jbn8/vvvAAD4y2diTk5O+/btg8dhYWFTp06Fx72SS1paGp1OV6lUOI6zWCwAANw1Gcfx9evXp6SkaAtcs2aNra0t7Jf98MMP4ZcTx/GqqioMw2BrXPsN3Lt3LwBAe8cdJheYm3AcX7Zsmb+/f88zf//9d/jwnXfeAQD88ssv8OFHH30EABAIBPo/rFKpdHV11Q503rZtGzyYN2/e2bNn4fGVK1cAALt27dIZf05ODgAgMzMTnqxQKOAerziO9/po8+bN27x5Mzy+ePEigUDIzs7WU5cpffbZZ2PHjjVxpYjJ/OWyCG5CyuPxTD9x/tKlS6GhoQCAgoICHMdhs7+v2tpa7UUQXNc+Ly8PACCVSk+dOvX5559rz3z77bdPnz79888/79q1C14IvPrqqwCA8ePHAwAGcgmwePFieBAYGHjjxg14DN84c+ZM+DAqKgoAEB8fDx++8MILAIDW1lb960JSKBRHR8eEhIQjR44sWrQI5o729vacnJzo6OgHDx4AAMRicUxMjHaJ8l7xJyQkhIaGHj58eP369QCA7Oxs7dVcz49WV1eXk5Nz+fJl+HDJkiVsNtvd3V1PXabU3d2N1rUbwf6SXKKioqhUam5ubnJysonjmD59+tmzZ7OzsxcsWODv799fP198fPylS5cKCgri4uIUCkVbW9vLL78MAMjPz4dbEWrPhJs9w/3Y+3bcEImD2CSbQqFo74XDN2oL7LUrEOwFH8iN82+++SY5OXnx4sVxcXEZGRlMJrO2thYAkJ6e7ubm1utkneOMtmzZkpqaWlJSEhkZefbs2ePHj/f9aJWVleCv6cbd3R0AoKcuU8rJyZk8ebIZA0CM6i/fMWdn5+XLlx86dKjvPufGlp6e/tNPPx09enTDhg169vHavn37mjVr0tPTc3Nzd+zYAW86AABgwPn5+doz4dcmJCTE+LEPxZIlS+rq6tLS0oqKimJiYiorK2FievToUc/Teu581svGjRvpdPo333xTWVkZHBys8+4ebPJcu3at55McDmewdRnD9evXi4qKNm3aZMpKEVPq/Qf8H//4R01NDfzGmkxRUdGhQ4dSU1O1y+vi/QxgIxAIXl5eX3zxBYZhqampOTk5jo6OAICJEyfSaLR79+5pz+RwOACAGTNmDDwMk6VUiURy9OhRFxeXL7744vbt22KxOCsra/z48SQSaffu3UqlEp7G4XAyMzP7K8TBwWHTpk2ZmZmHDh3S3mzqJSwsjEgkXrhwQfvR6uvrHz58ONi6DK67u/vNN99csWLF9OnTTVYpYmK9k8v48eO/+uqrffv2/fTTTyYLws7ODgBw7tw5tVqdm5tbXFzM4/Fqa2sbGxvFYjEAQCKRwDM/++yzO3fusFgsCoUiEAgqKirgPvDu7u5bt25tbGy8desWPPPcuXOJiYmzZs0Cz65Turq6tDX2Khbu0FhUVHT37l25XA57H7R9EBqNRqVSwe9hrzfCkrU9RDAY7av9wTBs9+7dcHpBXFxccHAwk8lkMBhvvfXW/fv3Z82a9euvv2ZkZCQlJcF+lr7xQ6mpqTKZrKury8/PT+dH8/Ly2rhxY0lJSWJi4s2bN7/99ttdu3YtXLhQT10mIBKJli9fjmHY0aNHTVMjYh46u3l3795NJBIPHDhgsimLycnJRCLRw8Pj8OHD+/btIxKJO3bsaGtre/vttwEAYWFh586dw3H8woULvTYP8PPzu379Oo7jGo3mb3/7G5PJ3Llz56ZNm9auXQtve50+fRp2giYmJhYXF+M43tzcrC32ypUrOI43NDR4eHgwGIwffvjh/PnzsF82NTW1rq7uxIkT48aNAwCkp6dnZWWFh4cDAN56663q6urLly/HxsYCADZs2FBSUnLz5k3Ys7tmzRr9t/OFQqGtrW1ERMRXX321Z8+elJQUOJFPIpHAO98AADqdDu/m9I2/p/nz51+9elX7sO9HEwgEK1euhGX6+/sXFhbCM3XWZQItLS2xsbFjxoxB8+xHvH5nRf/rX/8ik8krVqxobW01TSidnZ3aybLd3d06zzl16lRWVhaXy62urn706NGtW7e+/vrr2bNna0+QSqVwu7XB1q5UKk023h/DMIlEIhQKi4qK+i5xwuFwioqKBhhMc3PzQP4AtLa2PnnypO9c5EHVNXzZ2dljxowJDQ2tra01TY2IGelbz+X27duBgYFOTk7fffeddt6NGdXW1rq7u8NBLlodHR3JycnmCgkZoJaWlhUrVhAIhNdee+2544CQkeE5K9FJpdKdO3dSKJRp06bdunXLJCH16+bNmwCAV1555c6dO83Nzc3NzTk5OevWraurqzNvYIgeQqHw4MGDdDo9KCjoxo0b5g4HMZ0Brf5fXFy8ffv2W7duTZs27YMPPli8eLG5Vni5fv36xYsXc3NzGxsbg4ODFyxYsGvXLgvcyZjFYqWkpPT36qZNm0w/ksj0urq6vv7666+//lqlUqWlpf39739HOzSOKoPYWiQ/P/+f//zn5cuXo6Ki0tLS1qxZY29vb9Tg9MBx3FwJbiBwHNfe5e2LTCaP7B2yKysrjx49evToURqN9u67727ZssXFxcXcQSGmNuh9i548eXLw4MHs7GwajbZ27dqUlBQ0VAGBBALByZMnMzIy/vzzz7Fjx27duvXNN9+02GWrEGMb4o6LXC43MzMzIyPjyZMn48eP37Bhw/Lly9HWaKOTVCq9fv36mTNnsrOzMQxbtWpVSkrKnDlzBjXHAhl5hrtX9OPHj3/++efTp0+3t7ePGzcObhQ9Y8aMkd3sRwAAnZ2dFy5cOH/+fE5OjkKhmDp16oYNG+DqNuYODbEIw00uEIZhhYWFv//++++//15RUeHq6rpgwYKXXnrppZdeQht6jiQKheL+/fu3bt3Kzc29f/8+lUqdO3fu8uXLly5dat7llhELZJjk0lNdXd25c+dycnLu3bsnkUj8/Pxmz549Z86cl156qecodcRaqFSqgoKCW7du3b59Oz8/XyaTBQQEzJkzZ8mSJfPnzzdjpz5i4QyfXLTUanVxcXFubm5ubu69e/dkMpmnp+ekZ6ZNm+bq6mqkqpFhamtrKyoqunfvXl5e3uPHj6VS6ZgxY2bMmJGQkJCQkADnQyCIfkZMLj3J5fIHDx7cv3+/oKCgoKCgpaWFQCCMHz8+NjZ20qRJ4eHhERERcKkRxPTUanVNTU1ZWVlxcfHDhw8LCwt5PB6FQomKioqNjZ08efL06dPh+jgIMnAmSi69tLe3FxYWFhQUFBYWFhUVwfm+TCYzIiJiwoQJMNeEhoairkFjwDDs6dOnZWVl5eXlpaWl5eXllZWVSqWSRCIFBwfHPgNXsTB3sIgVM09y6YXH45WXl1dUVJSXlxcVFZWUlMCFixgMxjhdzB2v1VCr1c3NzQ1/VVVVBRdk8PT0nDBhQlhYGPz3xRdfhGtfIIhBWERy6QXH8aampqqqqrpn6uvrGxsb4ZhXZ2dnX1/fsWPH+vj4eHt7+/n5aQ9G7ejyjo6O1tbWlpaW5ubmlpaW1tbWp0+ftra2slgsuBaMq6trYGBgUFBQUFBQYGBgSEhIaGgoXDIZQYzEEpOLThqNhsViwUTDYrFYLFZzczP8/mg3dXZ1dR0zZgyTyfTw8GA+M2bMGDc3NyaT6ebmxmAwrG4AjlQq5fF4HA6HzWZzuVwOh9PZ2dnR0QGPOzo62tratHvRMplMHx8fHx8fPz8/b2/vgIAAmE0GuJUSghiQ1SQXPTgcTktLC/y73dnZ2fN7yOFwei3g5uDg4NQHg8FwcnKiUCh0Op1MJjs6OlKpVHt7exqNZmdnZ2trC1eoIpFIvSZJal/SEggEPbdAVqvV2rVp4UtweyA+n6/RaIRCITxBJpMJeuDz+Xw+Hx73XO6bRqPBRKnNmO7u7l5eXr6+vj4+Pr6+vr2CQRAzGgnJRT+1Ws3hcGCu0X5je+HxeAKBQK1Ww38Hu1Q1nU738PCAS+oPHExVFArFwcHB1tbW2dmZTqfDZOfs7Ozs7Nwz97m5uY0ZM8YC538jSH9GfnIZGqVSKZFI5HK5TCaTSqXwugM+7HmaSCRSq9U2NjaOjo5wSXB7e/teC/FrL0nodDqJRHJ2diYSiehGGDLioeRiAGw2u66uTrs1GoIgoO/q/wiCIAaBkguCIEaBkguCIEaBkguCIEaBkguCIEaBkguCIEaBkguCIEaBkguCIEaBkguCIEaBkguCIEaBkguCIEaBkguCIEaBkguCIEaBkguCIEaBkguCIEaBkguCIEaBkguCIEaBkguCIEaBkguCIEaBkguCIEaBkguCIEaBkguCIEaBkguCIEaBkguCIEaBkguCIEaBkguCIEaBkotlUavVhYWFHR0dBi8Zx3EOh1NSUtLa2mrwwhGkL5RczA/DMO0xgUCgUChEouH/XxQKhVKp5PF4PatDEONBycX8GhsbtcckEik6OprJZBq8FhsbG3d3d4MXiyD9QcnFzCQSSXt7u2nqIhAIpqkIQQAAZHMHMKJgGCYQCPh8Po1GYzAYtra28HmZTNbV1eXj4yMQCLq7u+3s7Dw8PAAAAoGgsrJSo9F0dnYSCAQmk4lhGIfDoVKpDAbjuWWy2eyAgACZTMbhcCgUypgxY7TpQyaTdXd3q9VqR0dHFxcX+CRKLogpoZaLwWAYVlpaqlarfX19cRwvKiricrkAgNbW1qKiIhaL1dnZWVtb29LSUlVVVVFRAd/l5OQEACCRSGQyWSqVVlZWVlVVicVi/WV2dHQ8efKkubm5q6uroaFBKBTW1NQ8ffoUvquurq66utrd3Z1Op5eWlrJYLDP8OJBRDyUXg6murraxsWEymWQy2dvb28XFpbKyUqFQwGONRgMAiImJmTJlCp1O53A4PB7PycnJzs4OAODq6spgMOzs7IKDgwdSpoeHB2z7AAAmTJgQHh7u7Ozc2dkJn+no6HBxcaFQKLBMmI8QxMRQcjEYDofj4OCgfejl5YVhGLLSe6oAABJlSURBVJvNBgCQSCQSiQT7U6lUakBAAACAx+P1LYREImmP4SWSnjIBANpLHnt7e4VCAY/Dw8O9vLwAACKRCPz1bhSCmAzqczEMHMdxHO/ZqQE7R2QyWd+T6XQ6AEAul+svUyAQDLxMEomE4zg8dnJy4nK5XC6XwWDY2Nhokw6CmBJquRiSUCjUHlMoFPAsHfRCIBCIRKKNjY3+0mCyGGCZPTU0NLDZ7JCQEA8PD2MMmUGQgUC/eYYB84VAINA+o1KpwLP+WvDXaxOhUIhhmKOjo/YZbaOjJ0dHR/1l6iQSiVgslpeXF0oriHmh3z+D8fb2lsvlfD4fPuRyuUwm09nZGT7UaDTay5Pu7m5HR0c4Ug42RkQikUAgwDAM9vvCfykUip4y1Wo16JGz4HUZhmGwL4bL5eI4zuPxxGKxWq2WyWRyuRwWi7pgENMg7dmzx9wxWD2xWNzd3R0VFaXRaJqamlQqVUdHh1wuf+GFF2CPSVdXl0wmk0qlarW6vb1dLBaHhoaSyWQAAIVC4XA4HR0djo6OVCq1ublZJBKpVCpbW1tbW1sGg6GzTC6X29raqlarNRqNnZ0dj8eDD3EcZzAYSqWSzWa3t7c7ODjAu0VEItHJyenp06cikUipVNJoNHiXCkGMh6CzQY4MCpvNrquri4+PBwBgGCaVSu3s7HpelVRXV3d3d0+dOlUikZDJ5F69LbDRoecqRmeZ+qlUKjKZDFObWq2GiQxBTAn9zhkYkUjsefO4JwKBoPMlAoGgf+ysnjL7A6+2IJRZELNAfS6mgGEY6ulARhuUXIwLx/G2tjY+n69Wq5uamtCQE2T0QA1m4yIQCF5eXnC8LIKMKqjlgiCIUaDkgiCIUaDkgiCIUaDkgiCIUaDkgiCIUaDkgiCIUaDkgiCIUaBxLkOBYZhSqdQ+hCsh9Fz8iUAg0Gg0M0SGIBYDTVwcCqVS+eeff+o5gclkhoWFmSweBLFA6LJoKKhUqv4Vm9D2YwiCkssQeXh49DeVmUgkatfNRpBRCyWXIepvx1UCgeDu7o6WmEQQ9B0YIjKZzGAw+jZecBxH10QIAlByGQ4PD4++3eEUCkW7bi6CjGYouQydm5tbr8sfeE2EtmRGEICSy3AQiUQ3N7eeqQRdEyGIFkouw+Lu7t7zyohGo8HdFBEEQcllWFxcXLTLXxOJRO3m8AiCoOQyLD1vPGMYhq6JEEQLJZfhcnd3hyv729nZ2dvbmzscBLEUKLkMl5OTE5yjiK6JEKQnlFwMAF4NoWsiBOkJLblgAO7u7kKhsNcmrQgyyqElF3Roa2uTSqUYhqnVarhZIjwICQnReae5uLiYz+cDAAgEAolE0j4fHh6uc/J0S0uLUqkkkUgUCoVMJlOeoVKpaAAeMmKMipaLSqVSPKNUKrX/BgcH6/zyS6VSkUhEIpHIZDKJRKJSqWQymUgkUqlUneWPHTsWbnvWa9tWW1tbnecrFAqBQKDRaFQqFVxoCoqOjtYZj0QiIRAINjY2aD4kYkVGRculvLycy+UCAMhkMo1Go9FoVCqVRqO5u7vb2dmZOzqgVqthlrG3t+/Z8NEqKioSi8UAABqNZmtra2tra2NjY2tr6+LiovN8BLEE1p1c1Gq1WCyWSqVisVgikfj4+OhcCUEmkwEAaDSalf7lhy0vuVwuk8lkMhk8UCgUU6ZMQYtpIhbLKpNLd3d3e3u7SCSC+7qTyWQHBwc7OzsPD4/RM/oex/H+OmiKi4vt7OwcHR3pdLolNM2Q0ckq+1w0Gg0AwMvLy8HBwd7efnT+9e4vs2AY5uDgIBQK2Ww2hmFkMhlmGWdnZ7QWBGJKFtpyUavVfD5fo9GgkWlDhuO4WCwWiURCoVAoFBKJxJiYGHMHhYwilpVcZDIZl8vt6uoSCoUAAFdX1wkTJpg7qBFCo9Gg3l/ElCwiueA4/vTpUy6XK5FIyGSyq6urq6srg8HQTjhGjKe9vb27u9vNzc3NzQ1lH8SALCK5AABKSkrs7OxcXV2dnZ3RQDJT6u7ubm1t5fP5BALBzc3N09NT/64pCDJAlpJcEPNSq9WdnZ1sNlskEtna2np6enp5eaGGDDIcpk4uKpWKQqGYskZkUMRiMZvN7urqiomJQckFGQ7TJRcul/v06VMikThx4kTT1IggiBmZosdUKpXW1dXxeDwmk+nn52eCGhEEMTvjtlwwDGtqamppabG3tw8ODh49w2dHKoVCMTqHLCJDYMTkIpfLy8vL5XJ5QECAp6cnugdk7ZRK5YMHD3x9ff39/c0dC2IFjHhZhGEYiUSaNGkSWkVpZKBSqUFBQXV1dSKRKDQ0FI1CQvRDt6KRwRGJROXl5SQSKSoqqr8FbhAEoDV0+2ppadm9e7efn59cLjd3LP+Lx+OFhYUdO3bM3IEAAICjo+OLL76I43hpaSmcQYogOqHk0lt9fX1eXh6LxbKcNh2cEuHg4GDuQP4XlUqNjIxUKBS1tbXmjgWxXCi59DZr1qyZM2eaO4q/cHR0vHv37urVq80dyP+xsbEZP348n89Xq9XmjgWxUKhPTgc0hngg4ORSK13cDzEBQyYXgUBAoVBMs/SZVCo9fvx4Z2dnaGjo3Llz6XQ6kUgkEAj19fUZGRl79uy5cuVKRUXF9u3bKRRKbW3t5cuX+Xz+5MmTFy1aBEuor6+/cOFCWlpaXl7elStXQkJCkpOTe35VCARCZWXlyZMn/f39k5KSBpJxYFG+vr5EInHz5s3wSaFQePLkycrKynHjxr322mvw6qZXnCEhIXAtTgKBsHLlShqN9ujRo+rqagDAkiVLqFTqqVOnPDw85s+fD8uUy+WnTp0qLy+Pi4ubP3++diVwnXUZD8osiD644Tx+/Li6utqABfaHw+EEBgYeO3ZMqVSmp6cDAPz9/ePj448dOzZmzBgAQEZGBpxkcO/eva1bt86YMYPL5V6/fp1AIBw4cADH8a+//trBwcHT0zMzMzMiIgJ+OVevXg3L379/PwDg7NmzGzdu3LhxIwBg//79z40qPT09MzNTIpFkZWU5ODjAJ2tqapYuXXrt2rUnT56Eh4cHBgbyeLy+cZ45c2bSpEkAgLy8PPhGDMMWL16clZVVWVm5YsUKAMDBgwfhS01NTTNmzDh69CiLxZo7d+64ceNkMll/dRn8h48gA2TI5FJQUNDU1GTAAvuTlpZGp9NVKhWO4ywWCwDwwQcfwJc+/PBD+KXFcbyqqgrDMCcnp3379sFXw8LCpk6dCo/XrVtnb2//n//8B8fxtra2uLg4AMC1a9fwZ8nlzJkz8Mxly5b5+/vrD0mpVLq6umpz67Zt2+DBvHnzzp49C4+vXLkCANi1a5fOOHNycgAAmZmZ8GSFQrFq1Sp43Nra2jO5zJs3b/PmzfD44sWLBAIhOztbT11G1dnZKZVKjV0LYo0MeVlEIpFM071XW1sLL4IAAD4+PkFBQXl5efAl2AZ59dVXAQDjx48HAFy6dCk0NBQAUFBQgOM4vPoAANjb29Pp9KSkJACAp6fnp59+Onv27JycHO2lx+LFi+FBYGDgjRs39IdEoVAcHR0TEhKOHDmyaNEimDva29tzcnKio6MfPHgAABCLxTExMVKpVGecCQkJoaGhhw8fXr9+PQAgOzs7MTERFt7z6qauri4nJ+fy5cvw4ZIlS9hstru7u566jKqqqiokJKS/HZqQ0cyQycXe3l4kEhmwwP7Ex8dfunSpoKAgLi5OoVC0tbW9/PLL8KW+kwymT59+9uzZ7OzsBQsW+Pv7w1ZA35NjY2MBALAd1AuFQum5dVl/vvnmm+Tk5MWLF8fFxWVkZDCZTHinNj093c3NrdfJOidDbNmyJTU1taSkJDIy8uzZs8ePH4fP9+zaqKysBH9NN3CPaj11GY9YLMYwzN7e3mQ1IlbEkB1yrq6uQqFQ2zQwnu3bt69ZsyY9PT03N3fHjh3Tpk375JNP+js5PT39p59+Onr06IYNG/RMuoPbpA1n0vaSJUvq6urS0tKKiopiYmIqKyvhANZHjx71PE1P/t24cSOdTv/mm28qKyuDg4N1jn+FbYRr1671fJLD4Qy2LoNgs9k2NjaWMwAHsSgGTi42NjaNjY0GLFMnAoHg5eX1xRdfYBiWmpqak5Pj6Oio88yioqJDhw6lpqZq5zfhPYbG9RyDm5+fr1AoJk+ePLSQJBLJ0aNHXVxcvvjii9u3b4vF4qysrPHjx5NIpN27dyuVSngah8PJzMzsrxAHB4dNmzZlZmYeOnRIe7Opl7CwMCKReOHCBe3o2Pr6+ocPHw62ruGTy+Xt7e3e3t7GqwKxaoZMLgQCISgoiMPh8Hg8Axbb12effXbnzh0Wi0WhUAQCQUVFhbavB16/dHV1wYfwvvi5c+fUanVubm5xcTGPx6utrYUZUCAQNDc3wzOvXr0aExMDB6rBrgpthwXc1Fn7pdUJw7Ddu3fDbBUXFxccHMxkMhkMxltvvXX//v1Zs2b9+uuvGRkZSUlJsJ+lV5xaqampMpmsq6urZxsK7uUqkUgAAF5eXhs3biwpKUlMTLx58+a33367a9euhQsX6qnLGHAcr6qqsrW1RckF6ZfBu4i5XC6GYQYvtqcLFy70mmnt5+d3/fr106dPw87RxMTE4uJieDIcveLh4XH48OF9+/YRicQdO3bgOP7666/b29svW7bs22+/3bx5c3x8fGNjI47j58+ff+GFFwAAqampdXV1J06cGDduHAAgPT2dy+X2F5JQKLS1tY2IiPjqq6/27NmTkpKiVCpxHJdIJPBmNgCATqfDuzk649SaP3/+1atXtQ+bm5vffvttAEBYWNiVK1dwHBcIBCtXroRl+vv7FxYWwjN11mUklZWVd+/eFYvFxqsCsXZWOSv69OnTarV63rx5XV1dEolEIBCUlZWdOXPm1q1bOs/ncDjOzs5wFByPx2MwGACA//qv/7p69WpjY2NFRYWTk1NAQMBwQsJxXCaTaTSa2trakJCQXt0QXC63ubk5NDR0IHdVWCyWj4/Pc5e/aWtr43A4YWFhvUb3DaquoVGr1aWlpf7+/vAniSA6WV9yqaurmz59emtra8/1RDo7O3fs2PHLL78MvByYXHrePEIQxICsb24Ri8Xq7OxMTk5+++23YXOjurr6hx9+gCPfBk4qlcJeDARBjMFELReRSGRvb2+oqSjXr1+/ePFibm5uY2NjcHDwggULdu3aNfAFelUq1dGjR/ft29fR0fHBBx+8+eabPj4+z30Xi8VKSUnp79VNmzYlJycP9AMgyChgiuSC4/iDBw8IBMK4ceOYTKZhSzbZ0rw4juu5YUQmk0fkLj9KpVKhUPR3px9B9DBRy0WhUDQ0NHR2dtra2vr6+o4ZMwat123hZDIZi8Xq6OhwcnKKjIw0dziI9TFphy78fWWz2VQq1dvb28PDAy3CaoEEAgG8FWVjY+Pr6+vh4YGWVkCGwAx3ixQKRUtLC5vN9vf3R0OwLEpra2tra6tMJnN0dPTx8WEymaiBiQyZ2W5FYxgG0GpDFqahoQHDME9PTzQXERk+SxznwuPxnJycUN5BEKtmceNcFApFSUkJkUh0cnJiMBjOzs4ODg6ocW4QarWaz+fz+XwSiTTMEckI8lyW2HJRKpXd3d08Ho/P5yuVSjKZ7OzszGQy4cIlyKAolUqhUCgUCvl8PpwK5OjoyGQyfX19zR0aMsJZYnLpSSKR8Pl8Ho9nY2MTFBRk7nCsjFKp/PPPPwEAdnZ2zs7OsCWItmFFTMPSk8tzwRUe7J8ZbbuCwAmTEomkv9GJfD7fwcEBJRTE9Kz+dw5+u7hcLlwhBe5tYmNj4+np6eTkZO7oDI/P50ulUplMJpfLZTKZTCbDMIxAIDg6OvZahgJydnY2fZAIAkZAcnF3d4d9MUqlUiKRSCQS+MXrb6nwrq4upVIJF7Wk0WiW1tLBMAyOuHdwcNA5n6ChoUEmk9na2trY2Li6utrZ2dnb29vZ2aGba4ilsfrLosGqra3t6OjouYM6mUymUCjBwcE6VycRCoUajYZEIhGJRHhxQSQSiUQiiUTSeQ9Lo9Fof6QwwWEYptFo7OzsdCaLpqYmgUCgVqtVKpVKpYLDfwAAUVFROhsdGIahPIJYhVGXXCCNRqNQKJRKJfxKq9VqJpOpc3Wl0tLS7u7uvs9HRES4uLgM/3wWiyWXy2GCo1Ao8IBGo1GpVHQDHrFqozS5DByO4xqNRq1WwwYIeNY2cXBw0HlJJRaLtfuQwNYNgUCAKWNETptGkP6g5IIgiFGgq3cEQYwCJRcEQYwCJRcEQYzi/wNu32w33jHG1QAAAABJRU5ErkJggg==;" vertex="1" parent="1">
          <mxGeometry x="10" y="10" width="372" height="510" as="geometry" />
        </mxCell>
        <mxCell id="JKxcnkwBbqaHYij_XGOk-2" value=":label dataProvider" style="text;html=1;strokeColor=none;fillColor=none;align=center;verticalAlign=middle;whiteSpace=wrap;rounded=0;fontStyle=1;fontSize=15;" vertex="1" parent="1">
          <mxGeometry x="267" y="23" width="148" height="30" as="geometry" />
        </mxCell>
        <mxCell id="JKxcnkwBbqaHYij_XGOk-3" value=":label dataProvider" style="text;html=1;strokeColor=none;fillColor=none;align=center;verticalAlign=middle;whiteSpace=wrap;rounded=0;fontStyle=1;fontSize=15;" vertex="1" parent="1">
          <mxGeometry x="260" y="105" width="148" height="30" as="geometry" />
        </mxCell>
        <mxCell id="JKxcnkwBbqaHYij_XGOk-4" value="" style="endArrow=none;html=1;rounded=0;entryX=0;entryY=0.5;entryDx=0;entryDy=0;exitX=0.618;exitY=0.255;exitDx=0;exitDy=0;exitPerimeter=0;" edge="1" parent="1" source="JKxcnkwBbqaHYij_XGOk-1" target="JKxcnkwBbqaHYij_XGOk-3">
          <mxGeometry width="50" height="50" relative="1" as="geometry">
            <mxPoint x="380" y="260" as="sourcePoint" />
            <mxPoint x="430" y="210" as="targetPoint" />
          </mxGeometry>
        </mxCell>
        <mxCell id="JKxcnkwBbqaHYij_XGOk-5" value=":label computeProvider" style="text;html=1;strokeColor=none;fillColor=none;align=center;verticalAlign=middle;whiteSpace=wrap;rounded=0;fontStyle=1;fontSize=15;" vertex="1" parent="1">
          <mxGeometry x="356" y="260" width="180" height="30" as="geometry" />
        </mxCell>
        <mxCell id="JKxcnkwBbqaHYij_XGOk-6" value=":label computeProvider" style="text;html=1;strokeColor=none;fillColor=none;align=center;verticalAlign=middle;whiteSpace=wrap;rounded=0;fontStyle=1;fontSize=15;" vertex="1" parent="1">
          <mxGeometry x="214" y="356" width="188" height="30" as="geometry" />
        </mxCell>
        <mxCell id="JKxcnkwBbqaHYij_XGOk-7" value=":label computeProvider" style="text;html=1;strokeColor=none;fillColor=none;align=center;verticalAlign=middle;whiteSpace=wrap;rounded=0;fontStyle=1;fontSize=15;" vertex="1" parent="1">
          <mxGeometry x="191" y="474" width="196" height="30" as="geometry" />
        </mxCell>
      </root>
    </mxGraphModel>
  </diagram>
</mxfile>
